# MagicaVoxel @ Ephtracy

# group
o 

# material
mtllib helm.mtl
usemtl palette

# normals
vn -1 0 0
vn 1 0 0
vn 0 0 1
vn 0 0 -1
vn 0 -1 0
vn 0 1 0

# texcoords
vt 0.150391 0.5
vt 0.341797 0.5

# verts
v -1.8 0.1 0.9
v -1.8 0.1 -1.2
v -1.8 2.4 0.9
v -1.8 2.4 -1.2
v -1.6 0.1 -1.2
v -1.6 0.1 -1.4
v -1.6 2.4 0.9
v -1.6 2.4 -1.2
v -1.6 2.4 -1.4
v -1.6 2.6 0.9
v -1.6 2.6 -1.2
v -0.4 2.4 -1.2
v -0.4 2.4 -1.4
v -0.4 2.6 -1.2
v -0.4 2.6 -1.4
v -0.3 0.1 -1.4
v -0.3 0.1 -1.6
v -0.3 1.5 1.4
v -0.3 1.5 0.9
v -0.3 2.2 0.9
v -0.3 2.4 -1.4
v -0.3 2.4 -1.6
v -0.3 2.6 0.9
v -0.3 2.6 -1.3
v -0.3 2.7 -1.1
v -0.3 2.7 -1.3
v -0.3 2.8 1.4
v -0.3 2.8 -1.1
v -0.0999998 2.8 1.3
v -0.0999998 2.8 -0.9
v -0.0999998 3.7 1.3
v -0.0999998 3.7 -0.9
v 1.6 0.1 0.9
v 1.6 0.1 -1
v 1.6 2.2 0.9
v 1.6 2.2 -1
v -1.6 0.1 0.9
v -1.6 0.1 -1
v -1.6 2.2 0.9
v -1.6 2.2 -1
v 0.1 2.8 1.3
v 0.1 2.8 -0.9
v 0.1 3.7 1.3
v 0.1 3.7 -0.9
v 0.3 0.1 -1.4
v 0.3 0.1 -1.6
v 0.3 1.5 1.4
v 0.3 1.5 0.9
v 0.3 2.2 0.9
v 0.3 2.4 -1.4
v 0.3 2.4 -1.6
v 0.3 2.6 0.9
v 0.3 2.6 -1.3
v 0.3 2.7 -1.1
v 0.3 2.7 -1.3
v 0.3 2.8 1.4
v 0.3 2.8 -1.1
v 0.4 2.4 -1.2
v 0.4 2.4 -1.4
v 0.4 2.6 -1.2
v 0.4 2.6 -1.4
v 1.6 0.1 -1.2
v 1.6 0.1 -1.4
v 1.6 2.4 0.9
v 1.6 2.4 -1.2
v 1.6 2.4 -1.4
v 1.6 2.6 0.9
v 1.6 2.6 -1.2
v 1.8 0.1 0.9
v 1.8 0.1 -1.2
v 1.8 2.4 0.9
v 1.8 2.4 -1.2
v -0.3 1.5 1.4
v -0.3 2.8 1.4
v 0.3 1.5 1.4
v 0.3 2.8 1.4
v -0.0999998 2.8 1.3
v -0.0999998 3.7 1.3
v 0.1 2.8 1.3
v 0.1 3.7 1.3
v -1.8 0.1 0.9
v -1.8 2.4 0.9
v -1.6 0.1 0.9
v -1.6 2.2 0.9
v -1.6 2.4 0.9
v -1.6 2.6 0.9
v -0.3 2.2 0.9
v -0.3 2.6 0.9
v 0.3 2.2 0.9
v 0.3 2.6 0.9
v 1.6 0.1 0.9
v 1.6 2.2 0.9
v 1.6 2.4 0.9
v 1.6 2.6 0.9
v 1.8 0.1 0.9
v 1.8 2.4 0.9
v -1.6 0.1 -1
v -1.6 2.2 -1
v 1.6 0.1 -1
v 1.6 2.2 -1
v -0.3 1.5 0.9
v -0.3 2.2 0.9
v 0.3 1.5 0.9
v 0.3 2.2 0.9
v -0.0999998 2.8 -0.9
v -0.0999998 3.7 -0.9
v 0.1 2.8 -0.9
v 0.1 3.7 -0.9
v -0.3 2.7 -1.1
v -0.3 2.8 -1.1
v 0.3 2.7 -1.1
v 0.3 2.8 -1.1
v -1.8 0.1 -1.2
v -1.8 2.4 -1.2
v -1.6 0.1 -1.2
v -1.6 2.4 -1.2
v -1.6 2.6 -1.2
v -0.4 2.4 -1.2
v -0.4 2.6 -1.2
v 0.4 2.4 -1.2
v 0.4 2.6 -1.2
v 1.6 0.1 -1.2
v 1.6 2.4 -1.2
v 1.6 2.6 -1.2
v 1.8 0.1 -1.2
v 1.8 2.4 -1.2
v -0.3 2.6 -1.3
v -0.3 2.7 -1.3
v 0.3 2.6 -1.3
v 0.3 2.7 -1.3
v -1.6 0.1 -1.4
v -1.6 2.4 -1.4
v -0.4 2.4 -1.4
v -0.4 2.6 -1.4
v -0.3 0.1 -1.4
v -0.3 2.4 -1.4
v 0.3 0.1 -1.4
v 0.3 2.4 -1.4
v 0.4 2.4 -1.4
v 0.4 2.6 -1.4
v 1.6 0.1 -1.4
v 1.6 2.4 -1.4
v -0.3 0.1 -1.6
v -0.3 2.4 -1.6
v 0.3 0.1 -1.6
v 0.3 2.4 -1.6
v -1.8 0.1 0.9
v -1.6 0.1 0.9
v 1.6 0.1 0.9
v 1.8 0.1 0.9
v -1.6 0.1 -1
v 1.6 0.1 -1
v -1.8 0.1 -1.2
v -1.6 0.1 -1.2
v 1.6 0.1 -1.2
v 1.8 0.1 -1.2
v -1.6 0.1 -1.4
v -0.3 0.1 -1.4
v 0.3 0.1 -1.4
v 1.6 0.1 -1.4
v -0.3 0.1 -1.6
v 0.3 0.1 -1.6
v -0.3 1.5 1.4
v 0.3 1.5 1.4
v -0.3 1.5 0.9
v 0.3 1.5 0.9
v -1.6 2.2 0.9
v -0.3 2.2 0.9
v 0.3 2.2 0.9
v 1.6 2.2 0.9
v -1.6 2.2 -1
v 1.6 2.2 -1
v -1.8 2.4 0.9
v -1.6 2.4 0.9
v 1.6 2.4 0.9
v 1.8 2.4 0.9
v -1.8 2.4 -1.2
v -1.6 2.4 -1.2
v -0.4 2.4 -1.2
v 0.4 2.4 -1.2
v 1.6 2.4 -1.2
v 1.8 2.4 -1.2
v -1.6 2.4 -1.4
v -0.4 2.4 -1.4
v -0.3 2.4 -1.4
v 0.3 2.4 -1.4
v 0.4 2.4 -1.4
v 1.6 2.4 -1.4
v -0.3 2.4 -1.6
v 0.3 2.4 -1.6
v -1.6 2.6 0.9
v -0.3 2.6 0.9
v 0.3 2.6 0.9
v 1.6 2.6 0.9
v -1.6 2.6 -1.2
v -0.4 2.6 -1.2
v 0.4 2.6 -1.2
v 1.6 2.6 -1.2
v -0.3 2.6 -1.3
v 0.3 2.6 -1.3
v -0.4 2.6 -1.4
v 0.4 2.6 -1.4
v -0.3 2.7 -1.1
v 0.3 2.7 -1.1
v -0.3 2.7 -1.3
v 0.3 2.7 -1.3
v -0.3 2.8 1.4
v 0.3 2.8 1.4
v -0.0999998 2.8 1.3
v 0.1 2.8 1.3
v -0.0999998 2.8 -0.9
v 0.1 2.8 -0.9
v -0.3 2.8 -1.1
v 0.3 2.8 -1.1
v -0.0999998 3.7 1.3
v 0.1 3.7 1.3
v -0.0999998 3.7 -0.9
v 0.1 3.7 -0.9

# faces
f 3/2/1 2/2/1 1/2/1
f 4/2/1 2/2/1 3/2/1
f 8/2/1 6/2/1 5/2/1
f 9/2/1 6/2/1 8/2/1
f 10/2/1 8/2/1 7/2/1
f 11/2/1 8/2/1 10/2/1
f 14/2/1 13/2/1 12/2/1
f 15/2/1 13/2/1 14/2/1
f 20/2/1 19/2/1 18/2/1
f 21/2/1 17/2/1 16/2/1
f 22/2/1 17/2/1 21/2/1
f 23/2/1 20/2/1 18/2/1
f 25/2/1 24/2/1 23/2/1
f 26/2/1 24/2/1 25/2/1
f 27/2/1 23/2/1 18/2/1
f 27/2/1 25/2/1 23/2/1
f 28/2/1 25/2/1 27/2/1
f 31/1/1 30/1/1 29/1/1
f 32/1/1 30/1/1 31/1/1
f 35/2/1 34/2/1 33/2/1
f 36/2/1 34/2/1 35/2/1
f 37/2/2 38/2/2 39/2/2
f 39/2/2 38/2/2 40/2/2
f 41/1/2 42/1/2 43/1/2
f 43/1/2 42/1/2 44/1/2
f 47/2/2 48/2/2 49/2/2
f 45/2/2 46/2/2 50/2/2
f 50/2/2 46/2/2 51/2/2
f 47/2/2 49/2/2 52/2/2
f 52/2/2 53/2/2 54/2/2
f 54/2/2 53/2/2 55/2/2
f 47/2/2 52/2/2 56/2/2
f 52/2/2 54/2/2 56/2/2
f 56/2/2 54/2/2 57/2/2
f 58/2/2 59/2/2 60/2/2
f 60/2/2 59/2/2 61/2/2
f 62/2/2 63/2/2 65/2/2
f 65/2/2 63/2/2 66/2/2
f 64/2/2 65/2/2 67/2/2
f 67/2/2 65/2/2 68/2/2
f 69/2/2 70/2/2 71/2/2
f 71/2/2 70/2/2 72/2/2
f 75/2/3 74/2/3 73/2/3
f 76/2/3 74/2/3 75/2/3
f 79/1/3 78/1/3 77/1/3
f 80/1/3 78/1/3 79/1/3
f 83/2/3 82/2/3 81/2/3
f 84/2/3 82/2/3 83/2/3
f 85/2/3 82/2/3 84/2/3
f 87/2/3 86/2/3 85/2/3
f 87/2/3 85/2/3 84/2/3
f 88/2/3 86/2/3 87/2/3
f 92/2/3 90/2/3 89/2/3
f 93/2/3 90/2/3 92/2/3
f 94/2/3 90/2/3 93/2/3
f 95/2/3 92/2/3 91/2/3
f 95/2/3 93/2/3 92/2/3
f 96/2/3 93/2/3 95/2/3
f 99/2/3 98/2/3 97/2/3
f 100/2/3 98/2/3 99/2/3
f 101/2/4 102/2/4 103/2/4
f 103/2/4 102/2/4 104/2/4
f 105/1/4 106/1/4 107/1/4
f 107/1/4 106/1/4 108/1/4
f 109/2/4 110/2/4 111/2/4
f 111/2/4 110/2/4 112/2/4
f 113/2/4 114/2/4 115/2/4
f 115/2/4 114/2/4 116/2/4
f 116/2/4 117/2/4 118/2/4
f 118/2/4 117/2/4 119/2/4
f 120/2/4 121/2/4 123/2/4
f 123/2/4 121/2/4 124/2/4
f 122/2/4 123/2/4 125/2/4
f 125/2/4 123/2/4 126/2/4
f 127/2/4 128/2/4 129/2/4
f 129/2/4 128/2/4 130/2/4
f 131/2/4 132/2/4 133/2/4
f 131/2/4 133/2/4 135/2/4
f 133/2/4 134/2/4 135/2/4
f 135/2/4 134/2/4 136/2/4
f 136/2/4 134/2/4 138/2/4
f 138/2/4 134/2/4 139/2/4
f 137/2/4 138/2/4 139/2/4
f 139/2/4 134/2/4 140/2/4
f 137/2/4 139/2/4 141/2/4
f 141/2/4 139/2/4 142/2/4
f 143/2/4 144/2/4 145/2/4
f 145/2/4 144/2/4 146/2/4
f 151/2/5 148/2/5 147/2/5
f 152/2/5 150/2/5 149/2/5
f 153/2/5 151/2/5 147/2/5
f 153/2/5 152/2/5 151/2/5
f 154/2/5 152/2/5 153/2/5
f 155/2/5 150/2/5 152/2/5
f 155/2/5 152/2/5 154/2/5
f 156/2/5 150/2/5 155/2/5
f 157/2/5 155/2/5 154/2/5
f 158/2/5 155/2/5 157/2/5
f 159/2/5 155/2/5 158/2/5
f 160/2/5 155/2/5 159/2/5
f 161/2/5 159/2/5 158/2/5
f 162/2/5 159/2/5 161/2/5
f 165/2/5 164/2/5 163/2/5
f 166/2/5 164/2/5 165/2/5
f 171/2/5 168/2/5 167/2/5
f 171/2/5 170/2/5 169/2/5
f 171/2/5 169/2/5 168/2/5
f 172/2/5 170/2/5 171/2/5
f 173/2/6 174/2/6 177/2/6
f 177/2/6 174/2/6 178/2/6
f 175/2/6 176/2/6 181/2/6
f 181/2/6 176/2/6 182/2/6
f 178/2/6 179/2/6 183/2/6
f 183/2/6 179/2/6 184/2/6
f 180/2/6 181/2/6 187/2/6
f 187/2/6 181/2/6 188/2/6
f 185/2/6 186/2/6 189/2/6
f 189/2/6 186/2/6 190/2/6
f 191/2/6 192/2/6 195/2/6
f 195/2/6 192/2/6 196/2/6
f 193/2/6 194/2/6 197/2/6
f 197/2/6 194/2/6 198/2/6
f 196/2/6 192/2/6 199/2/6
f 193/2/6 197/2/6 200/2/6
f 196/2/6 199/2/6 201/2/6
f 199/2/6 200/2/6 201/2/6
f 200/2/6 197/2/6 202/2/6
f 201/2/6 200/2/6 202/2/6
f 203/2/6 204/2/6 205/2/6
f 205/2/6 204/2/6 206/2/6
f 207/2/6 208/2/6 209/2/6
f 209/2/6 208/2/6 210/2/6
f 207/2/6 209/2/6 211/2/6
f 210/2/6 208/2/6 212/2/6
f 207/2/6 211/2/6 213/2/6
f 211/2/6 212/2/6 213/2/6
f 212/2/6 208/2/6 214/2/6
f 213/2/6 212/2/6 214/2/6
f 215/1/6 216/1/6 217/1/6
f 217/1/6 216/1/6 218/1/6
