# MagicaVoxel @ Ephtracy

# group
o model

# material
mtllib humanoid-12-model.mtl
usemtl palette

# normals
vn -1 0 0
vn 1 0 0
vn 0 0 1
vn 0 0 -1
vn 0 -1 0
vn 0 1 0

# texcoords
vt 0.00195313 0.5
vt 0.126953 0.5
vt 0.185547 0.5

# verts
v -1 1 0
v -1 1 -0.2
v -1 1.2 0
v -1 1.2 -0.2
v -0.5 1 -0.2
v -0.5 1 -0.3
v -0.5 1.2 -0.2
v -0.5 1.2 -0.3
v -0.4 0 0
v -0.4 0 -0.2
v -0.4 1 0.1
v -0.4 1 0
v -0.4 1 -0.2
v -0.4 1.2 0.1
v -0.4 1.2 0
v -0.4 1.2 -0.2
v -0.4 1.3 0
v -0.4 1.3 -0.2
v -0.4 1.6 0.1
v -0.4 1.6 -0.4
v -0.4 1.7 0.2
v -0.4 1.7 0.1
v -0.4 2 0.3
v -0.4 2 0.2
v -0.4 2.1 0.3
v -0.4 2.1 0.2
v -0.4 2.2 0.2
v -0.4 2.2 -0.4
v -0.3 0.6 0.1
v -0.3 0.6 0
v -0.3 0.6 -0.2
v -0.3 0.6 -0.3
v -0.3 1 0.1
v -0.3 1 0
v -0.3 1 -0.2
v -0.3 1 -0.3
v -0.3 1.2 0.1
v -0.3 1.2 0
v -0.3 1.2 -0.2
v -0.3 1.2 -0.3
v -0.3 1.3 0.1
v -0.3 1.3 0
v -0.3 1.3 -0.2
v -0.3 1.3 -0.3
v -0.3 1.4 0
v -0.3 1.4 -0.2
v -0.3 1.6 0.2
v -0.3 1.6 0.1
v -0.3 1.7 0.2
v -0.3 1.7 0.1
v -0.2 1.4 0
v -0.2 1.4 -0.2
v -0.2 1.6 0
v -0.2 1.6 -0.2
v 0.1 2 0.3
v 0.1 2 0.2
v 0.1 2.1 0.3
v 0.1 2.1 0.2
v 0.2 0 0
v 0.2 0 -0.2
v 0.2 0.6 0
v 0.2 0.6 -0.2
v -0.2 0 0
v -0.2 0 -0.2
v -0.2 0.6 0
v -0.2 0.6 -0.2
v -0.1 2 0.3
v -0.1 2 0.2
v -0.1 2.1 0.3
v -0.1 2.1 0.2
v 0.2 1.4 0
v 0.2 1.4 -0.2
v 0.2 1.6 0
v 0.2 1.6 -0.2
v 0.3 0.6 0.1
v 0.3 0.6 0
v 0.3 0.6 -0.2
v 0.3 0.6 -0.3
v 0.3 1 0.1
v 0.3 1 0
v 0.3 1 -0.2
v 0.3 1 -0.3
v 0.3 1.2 0.1
v 0.3 1.2 0
v 0.3 1.2 -0.2
v 0.3 1.2 -0.3
v 0.3 1.3 0.1
v 0.3 1.3 0
v 0.3 1.3 -0.2
v 0.3 1.3 -0.3
v 0.3 1.4 0
v 0.3 1.4 -0.2
v 0.3 1.6 0.2
v 0.3 1.6 0.1
v 0.3 1.7 0.2
v 0.3 1.7 0.1
v 0.4 0 0
v 0.4 0 -0.2
v 0.4 1 0.1
v 0.4 1 0
v 0.4 1 -0.2
v 0.4 1.2 0.1
v 0.4 1.2 0
v 0.4 1.2 -0.2
v 0.4 1.3 0
v 0.4 1.3 -0.2
v 0.4 1.6 0.1
v 0.4 1.6 -0.4
v 0.4 1.7 0.2
v 0.4 1.7 0.1
v 0.4 2 0.3
v 0.4 2 0.2
v 0.4 2.1 0.3
v 0.4 2.1 0.2
v 0.4 2.2 0.2
v 0.4 2.2 -0.4
v 0.5 1 -0.2
v 0.5 1 -0.3
v 0.5 1.2 -0.2
v 0.5 1.2 -0.3
v 1 1 0
v 1 1 -0.2
v 1 1.2 0
v 1 1.2 -0.2
v -0.4 2 0.3
v -0.4 2.1 0.3
v -0.1 2 0.3
v -0.1 2.1 0.3
v 0.1 2 0.3
v 0.1 2.1 0.3
v 0.4 2 0.3
v 0.4 2.1 0.3
v -0.4 1.7 0.2
v -0.4 2 0.2
v -0.4 2.1 0.2
v -0.4 2.2 0.2
v -0.3 1.6 0.2
v -0.3 1.7 0.2
v -0.3 1.8 0.2
v -0.3 2 0.2
v -0.1 1.8 0.2
v -0.1 2 0.2
v -0.1 2.1 0.2
v 0.1 1.8 0.2
v 0.1 2 0.2
v 0.1 2.1 0.2
v 0.3 1.6 0.2
v 0.3 1.7 0.2
v 0.3 1.8 0.2
v 0.3 2 0.2
v 0.4 1.7 0.2
v 0.4 2 0.2
v 0.4 2.1 0.2
v 0.4 2.2 0.2
v -0.4 1 0.1
v -0.4 1.2 0.1
v -0.4 1.6 0.1
v -0.4 1.7 0.1
v -0.3 0.6 0.1
v -0.3 1 0.1
v -0.3 1.2 0.1
v -0.3 1.3 0.1
v -0.3 1.6 0.1
v -0.3 1.7 0.1
v 0.3 0.6 0.1
v 0.3 1 0.1
v 0.3 1.2 0.1
v 0.3 1.3 0.1
v 0.3 1.6 0.1
v 0.3 1.7 0.1
v 0.4 1 0.1
v 0.4 1.2 0.1
v 0.4 1.6 0.1
v 0.4 1.7 0.1
v -1 1 0
v -1 1.2 0
v -0.4 0 0
v -0.4 1 0
v -0.4 1.2 0
v -0.4 1.3 0
v -0.3 0.6 0
v -0.3 1 0
v -0.3 1.2 0
v -0.3 1.3 0
v -0.3 1.4 0
v -0.2 0 0
v -0.2 0.6 0
v -0.2 1.4 0
v -0.2 1.6 0
v 0.2 0 0
v 0.2 0.6 0
v 0.2 1.4 0
v 0.2 1.6 0
v 0.3 0.6 0
v 0.3 1 0
v 0.3 1.2 0
v 0.3 1.3 0
v 0.3 1.4 0
v 0.4 0 0
v 0.4 1 0
v 0.4 1.2 0
v 0.4 1.3 0
v 1 1 0
v 1 1.2 0
v -1 1 -0.2
v -1 1.2 -0.2
v -0.5 1 -0.2
v -0.5 1.2 -0.2
v -0.4 0 -0.2
v -0.4 1 -0.2
v -0.4 1.2 -0.2
v -0.4 1.3 -0.2
v -0.3 0.6 -0.2
v -0.3 1 -0.2
v -0.3 1.2 -0.2
v -0.3 1.3 -0.2
v -0.3 1.4 -0.2
v -0.2 0 -0.2
v -0.2 0.6 -0.2
v -0.2 1.4 -0.2
v -0.2 1.6 -0.2
v 0.2 0 -0.2
v 0.2 0.6 -0.2
v 0.2 1.4 -0.2
v 0.2 1.6 -0.2
v 0.3 0.6 -0.2
v 0.3 1 -0.2
v 0.3 1.2 -0.2
v 0.3 1.3 -0.2
v 0.3 1.4 -0.2
v 0.4 0 -0.2
v 0.4 1 -0.2
v 0.4 1.2 -0.2
v 0.4 1.3 -0.2
v 0.5 1 -0.2
v 0.5 1.2 -0.2
v 1 1 -0.2
v 1 1.2 -0.2
v -0.5 1 -0.3
v -0.5 1.2 -0.3
v -0.3 0.6 -0.3
v -0.3 1 -0.3
v -0.3 1.2 -0.3
v -0.3 1.3 -0.3
v 0.3 0.6 -0.3
v 0.3 1 -0.3
v 0.3 1.2 -0.3
v 0.3 1.3 -0.3
v 0.5 1 -0.3
v 0.5 1.2 -0.3
v -0.4 1.6 -0.4
v -0.4 2.2 -0.4
v 0.4 1.6 -0.4
v 0.4 2.2 -0.4
v -0.4 0 0
v -0.2 0 0
v 0.2 0 0
v 0.4 0 0
v -0.4 0 -0.2
v -0.2 0 -0.2
v 0.2 0 -0.2
v 0.4 0 -0.2
v -0.3 0.6 0.1
v 0.3 0.6 0.1
v -0.3 0.6 0
v -0.2 0.6 0
v 0.2 0.6 0
v 0.3 0.6 0
v -0.3 0.6 -0.2
v -0.2 0.6 -0.2
v 0.2 0.6 -0.2
v 0.3 0.6 -0.2
v -0.3 0.6 -0.3
v 0.3 0.6 -0.3
v -0.4 1 0.1
v -0.3 1 0.1
v 0.3 1 0.1
v 0.4 1 0.1
v -1 1 0
v -0.4 1 0
v -0.3 1 0
v 0.3 1 0
v 0.4 1 0
v 1 1 0
v -1 1 -0.2
v -0.5 1 -0.2
v -0.4 1 -0.2
v -0.3 1 -0.2
v 0.3 1 -0.2
v 0.4 1 -0.2
v 0.5 1 -0.2
v 1 1 -0.2
v -0.5 1 -0.3
v -0.3 1 -0.3
v 0.3 1 -0.3
v 0.5 1 -0.3
v -0.3 1.6 0.2
v 0.3 1.6 0.2
v -0.4 1.6 0.1
v -0.3 1.6 0.1
v 0.3 1.6 0.1
v 0.4 1.6 0.1
v -0.2 1.6 0
v 0.2 1.6 0
v -0.2 1.6 -0.2
v 0.2 1.6 -0.2
v -0.4 1.6 -0.4
v 0.4 1.6 -0.4
v -0.4 1.7 0.2
v -0.3 1.7 0.2
v 0.3 1.7 0.2
v 0.4 1.7 0.2
v -0.4 1.7 0.1
v -0.3 1.7 0.1
v 0.3 1.7 0.1
v 0.4 1.7 0.1
v -0.4 2 0.3
v -0.1 2 0.3
v 0.1 2 0.3
v 0.4 2 0.3
v -0.4 2 0.2
v -0.3 2 0.2
v -0.1 2 0.2
v 0.1 2 0.2
v 0.3 2 0.2
v 0.4 2 0.2
v -0.4 1.2 0.1
v -0.3 1.2 0.1
v 0.3 1.2 0.1
v 0.4 1.2 0.1
v -1 1.2 0
v -0.4 1.2 0
v -0.3 1.2 0
v 0.3 1.2 0
v 0.4 1.2 0
v 1 1.2 0
v -1 1.2 -0.2
v -0.5 1.2 -0.2
v -0.4 1.2 -0.2
v -0.3 1.2 -0.2
v 0.3 1.2 -0.2
v 0.4 1.2 -0.2
v 0.5 1.2 -0.2
v 1 1.2 -0.2
v -0.5 1.2 -0.3
v -0.3 1.2 -0.3
v 0.3 1.2 -0.3
v 0.5 1.2 -0.3
v -0.3 1.3 0.1
v 0.3 1.3 0.1
v -0.4 1.3 0
v -0.3 1.3 0
v 0.3 1.3 0
v 0.4 1.3 0
v -0.4 1.3 -0.2
v -0.3 1.3 -0.2
v 0.3 1.3 -0.2
v 0.4 1.3 -0.2
v -0.3 1.3 -0.3
v 0.3 1.3 -0.3
v -0.3 1.4 0
v -0.2 1.4 0
v 0.2 1.4 0
v 0.3 1.4 0
v -0.3 1.4 -0.2
v -0.2 1.4 -0.2
v 0.2 1.4 -0.2
v 0.3 1.4 -0.2
v -0.4 2.1 0.3
v -0.1 2.1 0.3
v 0.1 2.1 0.3
v 0.4 2.1 0.3
v -0.4 2.1 0.2
v -0.1 2.1 0.2
v 0.1 2.1 0.2
v 0.4 2.1 0.2
v -0.4 2.2 0.2
v 0.4 2.2 0.2
v -0.4 2.2 -0.4
v 0.4 2.2 -0.4

# faces
f 3/2/1 2/2/1 1/2/1
f 4/2/1 2/2/1 3/2/1
f 7/2/1 6/2/1 5/2/1
f 8/2/1 6/2/1 7/2/1
f 12/2/1 10/2/1 9/2/1
f 13/2/1 10/2/1 12/2/1
f 14/2/1 12/2/1 11/2/1
f 15/2/1 12/2/1 14/2/1
f 17/2/1 16/2/1 15/2/1
f 18/2/1 16/2/1 17/2/1
f 22/2/1 20/2/1 19/2/1
f 24/2/1 22/2/1 21/2/1
f 25/1/1 24/1/1 23/1/1
f 26/2/1 22/2/1 24/2/1
f 26/1/1 24/1/1 25/1/1
f 27/2/1 22/2/1 26/2/1
f 28/2/1 20/2/1 22/2/1
f 28/2/1 22/2/1 27/2/1
f 33/2/1 30/2/1 29/2/1
f 34/2/1 30/2/1 33/2/1
f 35/2/1 32/2/1 31/2/1
f 36/2/1 32/2/1 35/2/1
f 41/2/1 38/2/1 37/2/1
f 42/2/1 38/2/1 41/2/1
f 43/2/1 40/2/1 39/2/1
f 44/2/1 40/2/1 43/2/1
f 45/2/1 43/2/1 42/2/1
f 46/2/1 43/2/1 45/2/1
f 49/2/1 48/2/1 47/2/1
f 50/2/1 48/2/1 49/2/1
f 53/2/1 52/2/1 51/2/1
f 54/2/1 52/2/1 53/2/1
f 57/1/1 56/1/1 55/1/1
f 58/1/1 56/1/1 57/1/1
f 61/2/1 60/2/1 59/2/1
f 62/2/1 60/2/1 61/2/1
f 63/2/2 64/2/2 65/2/2
f 65/2/2 64/2/2 66/2/2
f 67/1/2 68/1/2 69/1/2
f 69/1/2 68/1/2 70/1/2
f 71/2/2 72/2/2 73/2/2
f 73/2/2 72/2/2 74/2/2
f 75/2/2 76/2/2 79/2/2
f 79/2/2 76/2/2 80/2/2
f 77/2/2 78/2/2 81/2/2
f 81/2/2 78/2/2 82/2/2
f 83/2/2 84/2/2 87/2/2
f 87/2/2 84/2/2 88/2/2
f 85/2/2 86/2/2 89/2/2
f 89/2/2 86/2/2 90/2/2
f 88/2/2 89/2/2 91/2/2
f 91/2/2 89/2/2 92/2/2
f 93/2/2 94/2/2 95/2/2
f 95/2/2 94/2/2 96/2/2
f 97/2/2 98/2/2 100/2/2
f 100/2/2 98/2/2 101/2/2
f 99/2/2 100/2/2 102/2/2
f 102/2/2 100/2/2 103/2/2
f 103/2/2 104/2/2 105/2/2
f 105/2/2 104/2/2 106/2/2
f 107/2/2 108/2/2 110/2/2
f 109/2/2 110/2/2 112/2/2
f 111/1/2 112/1/2 113/1/2
f 112/2/2 110/2/2 114/2/2
f 113/1/2 112/1/2 114/1/2
f 114/2/2 110/2/2 115/2/2
f 110/2/2 108/2/2 116/2/2
f 115/2/2 110/2/2 116/2/2
f 117/2/2 118/2/2 119/2/2
f 119/2/2 118/2/2 120/2/2
f 121/2/2 122/2/2 123/2/2
f 123/2/2 122/2/2 124/2/2
f 127/1/3 126/1/3 125/1/3
f 128/1/3 126/1/3 127/1/3
f 131/1/3 130/1/3 129/1/3
f 132/1/3 130/1/3 131/1/3
f 138/2/3 134/2/3 133/2/3
f 139/2/3 134/2/3 138/2/3
f 140/2/3 134/2/3 139/2/3
f 141/2/3 138/2/3 137/2/3
f 141/2/3 139/2/3 138/2/3
f 141/3/3 140/3/3 139/3/3
f 142/3/3 140/3/3 141/3/3
f 143/2/3 136/2/3 135/2/3
f 144/2/3 142/2/3 141/2/3
f 144/2/3 143/2/3 142/2/3
f 144/2/3 141/2/3 137/2/3
f 145/2/3 143/2/3 144/2/3
f 146/2/3 136/2/3 143/2/3
f 146/2/3 143/2/3 145/2/3
f 147/2/3 144/2/3 137/2/3
f 148/2/3 144/2/3 147/2/3
f 149/3/3 145/3/3 144/3/3
f 149/2/3 144/2/3 148/2/3
f 150/3/3 145/3/3 149/3/3
f 151/2/3 149/2/3 148/2/3
f 151/2/3 150/2/3 149/2/3
f 152/2/3 150/2/3 151/2/3
f 153/2/3 136/2/3 146/2/3
f 154/2/3 136/2/3 153/2/3
f 160/2/3 156/2/3 155/2/3
f 161/2/3 156/2/3 160/2/3
f 163/2/3 158/2/3 157/2/3
f 164/2/3 158/2/3 163/2/3
f 165/2/3 162/2/3 161/2/3
f 165/2/3 160/2/3 159/2/3
f 165/2/3 161/2/3 160/2/3
f 166/2/3 162/2/3 165/2/3
f 167/2/3 162/2/3 166/2/3
f 168/2/3 162/2/3 167/2/3
f 171/2/3 167/2/3 166/2/3
f 172/2/3 167/2/3 171/2/3
f 173/2/3 170/2/3 169/2/3
f 174/2/3 170/2/3 173/2/3
f 178/2/3 176/2/3 175/2/3
f 179/2/3 176/2/3 178/2/3
f 181/2/3 178/2/3 177/2/3
f 182/2/3 178/2/3 181/2/3
f 183/2/3 180/2/3 179/2/3
f 184/2/3 180/2/3 183/2/3
f 186/2/3 181/2/3 177/2/3
f 187/2/3 181/2/3 186/2/3
f 188/2/3 185/2/3 184/2/3
f 192/2/3 189/2/3 188/2/3
f 192/2/3 188/2/3 184/2/3
f 193/2/3 189/2/3 192/2/3
f 194/2/3 191/2/3 190/2/3
f 197/2/3 192/2/3 184/2/3
f 198/2/3 192/2/3 197/2/3
f 199/2/3 195/2/3 194/2/3
f 199/2/3 194/2/3 190/2/3
f 200/2/3 195/2/3 199/2/3
f 201/2/3 197/2/3 196/2/3
f 202/2/3 197/2/3 201/2/3
f 203/2/3 201/2/3 200/2/3
f 204/2/3 201/2/3 203/2/3
f 205/2/4 206/2/4 207/2/4
f 207/2/4 206/2/4 208/2/4
f 209/2/4 210/2/4 213/2/4
f 213/2/4 210/2/4 214/2/4
f 211/2/4 212/2/4 215/2/4
f 215/2/4 212/2/4 216/2/4
f 209/2/4 213/2/4 218/2/4
f 218/2/4 213/2/4 219/2/4
f 216/2/4 217/2/4 220/2/4
f 220/2/4 221/2/4 224/2/4
f 216/2/4 220/2/4 224/2/4
f 224/2/4 221/2/4 225/2/4
f 222/2/4 223/2/4 226/2/4
f 216/2/4 224/2/4 229/2/4
f 229/2/4 224/2/4 230/2/4
f 226/2/4 227/2/4 231/2/4
f 222/2/4 226/2/4 231/2/4
f 231/2/4 227/2/4 232/2/4
f 228/2/4 229/2/4 233/2/4
f 233/2/4 229/2/4 234/2/4
f 235/2/4 236/2/4 237/2/4
f 237/2/4 236/2/4 238/2/4
f 239/2/4 240/2/4 242/2/4
f 242/2/4 240/2/4 243/2/4
f 241/2/4 242/2/4 245/2/4
f 243/2/4 244/2/4 245/2/4
f 242/2/4 243/2/4 245/2/4
f 245/2/4 244/2/4 246/2/4
f 246/2/4 244/2/4 247/2/4
f 247/2/4 244/2/4 248/2/4
f 246/2/4 247/2/4 249/2/4
f 249/2/4 247/2/4 250/2/4
f 251/2/4 252/2/4 253/2/4
f 253/2/4 252/2/4 254/2/4
f 259/2/5 256/2/5 255/2/5
f 260/2/5 256/2/5 259/2/5
f 261/2/5 258/2/5 257/2/5
f 262/2/5 258/2/5 261/2/5
f 265/2/5 264/2/5 263/2/5
f 266/2/5 264/2/5 265/2/5
f 267/2/5 264/2/5 266/2/5
f 268/2/5 264/2/5 267/2/5
f 270/2/5 267/2/5 266/2/5
f 271/2/5 267/2/5 270/2/5
f 273/2/5 270/2/5 269/2/5
f 273/2/5 272/2/5 271/2/5
f 273/2/5 271/2/5 270/2/5
f 274/2/5 272/2/5 273/2/5
f 280/2/5 276/2/5 275/2/5
f 281/2/5 276/2/5 280/2/5
f 282/2/5 278/2/5 277/2/5
f 283/2/5 278/2/5 282/2/5
f 285/2/5 280/2/5 279/2/5
f 286/2/5 280/2/5 285/2/5
f 287/2/5 280/2/5 286/2/5
f 290/2/5 284/2/5 283/2/5
f 291/2/5 284/2/5 290/2/5
f 292/2/5 284/2/5 291/2/5
f 293/2/5 288/2/5 287/2/5
f 293/2/5 287/2/5 286/2/5
f 294/2/5 288/2/5 293/2/5
f 295/2/5 291/2/5 290/2/5
f 295/2/5 290/2/5 289/2/5
f 296/2/5 291/2/5 295/2/5
f 300/2/5 298/2/5 297/2/5
f 301/2/5 298/2/5 300/2/5
f 303/2/5 300/2/5 299/2/5
f 303/2/5 302/2/5 301/2/5
f 303/2/5 301/2/5 300/2/5
f 304/2/5 302/2/5 303/2/5
f 305/2/5 303/2/5 299/2/5
f 306/2/5 302/2/5 304/2/5
f 307/2/5 305/2/5 299/2/5
f 307/2/5 306/2/5 305/2/5
f 308/2/5 302/2/5 306/2/5
f 308/2/5 306/2/5 307/2/5
f 313/2/5 310/2/5 309/2/5
f 314/2/5 310/2/5 313/2/5
f 315/2/5 312/2/5 311/2/5
f 316/2/5 312/2/5 315/2/5
f 321/1/5 318/1/5 317/1/5
f 322/1/5 318/1/5 321/1/5
f 323/1/5 318/1/5 322/1/5
f 324/1/5 320/1/5 319/1/5
f 325/1/5 320/1/5 324/1/5
f 326/1/5 320/1/5 325/1/5
f 327/2/6 328/2/6 332/2/6
f 332/2/6 328/2/6 333/2/6
f 329/2/6 330/2/6 334/2/6
f 334/2/6 330/2/6 335/2/6
f 331/2/6 332/2/6 337/2/6
f 337/2/6 332/2/6 338/2/6
f 338/2/6 332/2/6 339/2/6
f 335/2/6 336/2/6 342/2/6
f 342/2/6 336/2/6 343/2/6
f 343/2/6 336/2/6 344/2/6
f 339/2/6 340/2/6 345/2/6
f 338/2/6 339/2/6 345/2/6
f 345/2/6 340/2/6 346/2/6
f 342/2/6 343/2/6 347/2/6
f 341/2/6 342/2/6 347/2/6
f 347/2/6 343/2/6 348/2/6
f 349/2/6 350/2/6 352/2/6
f 352/2/6 350/2/6 353/2/6
f 351/2/6 352/2/6 355/2/6
f 355/2/6 352/2/6 356/2/6
f 353/2/6 354/2/6 357/2/6
f 357/2/6 354/2/6 358/2/6
f 356/2/6 357/2/6 359/2/6
f 359/2/6 357/2/6 360/2/6
f 361/2/6 362/2/6 365/2/6
f 365/2/6 362/2/6 366/2/6
f 363/2/6 364/2/6 367/2/6
f 367/2/6 364/2/6 368/2/6
f 369/1/6 370/1/6 373/1/6
f 373/1/6 370/1/6 374/1/6
f 371/1/6 372/1/6 375/1/6
f 375/1/6 372/1/6 376/1/6
f 377/2/6 378/2/6 379/2/6
f 379/2/6 378/2/6 380/2/6
