# MagicaVoxel @ Ephtracy

# group
o 

# material
mtllib sword.mtl
usemtl palette

# normals
vn -1 0 0
vn 1 0 0
vn 0 0 1
vn 0 0 -1
vn 0 -1 0
vn 0 1 0

# texcoords
vt 0.00976563 0.5
vt 0.248047 0.5
vt 0.341797 0.5
vt 0.404297 0.5

# verts
v -0.2 -0.3 0.2
v -0.2 -0.3 -0.2
v -0.2 -0.2 0.2
v -0.2 -0.2 -0.2
v -0.2 0.6 0.4
v -0.2 0.6 -0.4
v -0.2 0.7 0.4
v -0.2 0.7 -0.4
v -0.1 -0.2 0.1
v -0.1 -0.2 -0.1
v -0.1 0.6 0.1
v -0.1 0.6 -0.1
v -0.1 0.7 0.4
v -0.1 0.7 0.2
v -0.1 0.7 -0.4
v -0.1 1.3 -0.3
v -0.1 1.3 -0.4
v -0.1 3.5 -0.3
v -0.1 3.5 -0.4
v -0.1 3.8 -0.3
v -0.1 3.8 -0.4
v -0.1 4.2 -0.3
v -0.1 4.2 -0.4
v -0.1 5.2 -0.3
v -0.1 5.2 -0.4
v -0.1 6.1 -0.3
v -0.1 6.1 -0.4
v -0.1 6.9 0.2
v -0.1 6.9 0
v -0.1 7 0
v -0.1 7 -0.2
v -0.1 7.1 0.4
v -0.1 7.1 0.2
v -0.1 7.1 -0.2
v -0.1 7.1 -0.4
v -0.1 7.2 0.2
v -0.1 7.2 0
v -0.1 7.3 0
v -0.1 7.3 -0.2
v -0.1 7.4 -0.2
v -0.1 7.4 -0.4
v 0 -0.2 0.1
v 0 -0.2 -0.1
v 0 0.6 0.1
v 0 0.6 -0.1
v 0 0.7 0.4
v 0 0.7 0.2
v 0 0.7 -0.4
v 0 1.3 -0.3
v 0 1.3 -0.4
v 0 3.5 -0.3
v 0 3.5 -0.4
v 0 3.8 -0.3
v 0 3.8 -0.4
v 0 4.2 -0.3
v 0 4.2 -0.4
v 0 5.2 -0.3
v 0 5.2 -0.4
v 0 6.1 -0.3
v 0 6.1 -0.4
v 0 6.9 0.2
v 0 6.9 0
v 0 7 0
v 0 7 -0.2
v 0 7.1 0.4
v 0 7.1 0.2
v 0 7.1 -0.2
v 0 7.1 -0.4
v 0 7.2 0.2
v 0 7.2 0
v 0 7.3 0
v 0 7.3 -0.2
v 0 7.4 -0.2
v 0 7.4 -0.4
v 0.1 -0.3 0.2
v 0.1 -0.3 -0.2
v 0.1 -0.2 0.2
v 0.1 -0.2 -0.2
v 0.1 0.6 0.4
v 0.1 0.6 -0.4
v 0.1 0.7 0.4
v 0.1 0.7 -0.4
v -0.2 0.6 0.4
v -0.2 0.7 0.4
v -0.1 0.7 0.4
v -0.1 7.1 0.4
v 0 0.7 0.4
v 0 7.1 0.4
v 0.1 0.6 0.4
v 0.1 0.7 0.4
v -0.2 -0.3 0.2
v -0.2 -0.2 0.2
v -0.1 7.1 0.2
v -0.1 7.2 0.2
v 0 7.1 0.2
v 0 7.2 0.2
v 0.1 -0.3 0.2
v 0.1 -0.2 0.2
v -0.1 -0.2 0.1
v -0.1 0.6 0.1
v 0 -0.2 0.1
v 0 0.6 0.1
v -0.1 7.2 0
v -0.1 7.3 0
v 0 7.2 0
v 0 7.3 0
v -0.1 7.3 -0.2
v -0.1 7.4 -0.2
v 0 7.3 -0.2
v 0 7.4 -0.2
v -0.1 -0.2 -0.1
v -0.1 0.6 -0.1
v 0 -0.2 -0.1
v 0 0.6 -0.1
v -0.2 -0.3 -0.2
v -0.2 -0.2 -0.2
v 0.1 -0.3 -0.2
v 0.1 -0.2 -0.2
v -0.1 1.3 -0.3
v -0.1 3.5 -0.3
v -0.1 3.8 -0.3
v -0.1 4.2 -0.3
v -0.1 5.2 -0.3
v -0.1 6.1 -0.3
v 0 1.3 -0.3
v 0 3.5 -0.3
v 0 3.8 -0.3
v 0 4.2 -0.3
v 0 5.2 -0.3
v 0 6.1 -0.3
v -0.2 0.6 -0.4
v -0.2 0.7 -0.4
v -0.1 0.7 -0.4
v -0.1 1.3 -0.4
v -0.1 3.5 -0.4
v -0.1 3.8 -0.4
v -0.1 4.2 -0.4
v -0.1 5.2 -0.4
v -0.1 6.1 -0.4
v -0.1 7.1 -0.4
v -0.1 7.4 -0.4
v 0 0.7 -0.4
v 0 1.3 -0.4
v 0 3.5 -0.4
v 0 3.8 -0.4
v 0 4.2 -0.4
v 0 5.2 -0.4
v 0 6.1 -0.4
v 0 7.1 -0.4
v 0 7.4 -0.4
v 0.1 0.6 -0.4
v 0.1 0.7 -0.4
v -0.2 -0.3 0.2
v 0.1 -0.3 0.2
v -0.2 -0.3 -0.2
v 0.1 -0.3 -0.2
v -0.2 0.6 0.4
v 0.1 0.6 0.4
v -0.1 0.6 0.1
v 0 0.6 0.1
v -0.1 0.6 -0.1
v 0 0.6 -0.1
v -0.2 0.6 -0.4
v 0.1 0.6 -0.4
v -0.1 3.5 -0.3
v 0 3.5 -0.3
v -0.1 3.5 -0.4
v 0 3.5 -0.4
v -0.1 4.2 -0.3
v 0 4.2 -0.3
v -0.1 4.2 -0.4
v 0 4.2 -0.4
v -0.1 6.1 -0.3
v 0 6.1 -0.3
v -0.1 6.1 -0.4
v 0 6.1 -0.4
v -0.2 -0.2 0.2
v 0.1 -0.2 0.2
v -0.1 -0.2 0.1
v 0 -0.2 0.1
v -0.1 -0.2 -0.1
v 0 -0.2 -0.1
v -0.2 -0.2 -0.2
v 0.1 -0.2 -0.2
v -0.2 0.7 0.4
v -0.1 0.7 0.4
v 0 0.7 0.4
v 0.1 0.7 0.4
v -0.1 0.7 0.2
v 0 0.7 0.2
v -0.2 0.7 -0.4
v -0.1 0.7 -0.4
v 0 0.7 -0.4
v 0.1 0.7 -0.4
v -0.1 1.3 -0.3
v 0 1.3 -0.3
v -0.1 1.3 -0.4
v 0 1.3 -0.4
v -0.1 3.8 -0.3
v 0 3.8 -0.3
v -0.1 3.8 -0.4
v 0 3.8 -0.4
v -0.1 5.2 -0.3
v 0 5.2 -0.3
v -0.1 5.2 -0.4
v 0 5.2 -0.4
v -0.1 7.1 0.4
v 0 7.1 0.4
v -0.1 7.1 0.2
v 0 7.1 0.2
v -0.1 7.2 0.2
v 0 7.2 0.2
v -0.1 7.2 0
v 0 7.2 0
v -0.1 7.3 0
v 0 7.3 0
v -0.1 7.3 -0.2
v 0 7.3 -0.2
v -0.1 7.4 -0.2
v 0 7.4 -0.2
v -0.1 7.4 -0.4
v 0 7.4 -0.4

# faces
f 3/2/1 2/2/1 1/2/1
f 4/2/1 2/2/1 3/2/1
f 7/2/1 6/2/1 5/2/1
f 8/2/1 6/2/1 7/2/1
f 11/1/1 10/1/1 9/1/1
f 12/1/1 10/1/1 11/1/1
f 16/3/1 15/3/1 14/3/1
f 17/3/1 15/3/1 16/3/1
f 18/3/1 16/3/1 14/3/1
f 20/3/1 18/3/1 14/3/1
f 20/3/1 19/3/1 18/3/1
f 21/3/1 19/3/1 20/3/1
f 22/3/1 20/3/1 14/3/1
f 24/3/1 22/3/1 14/3/1
f 24/3/1 23/3/1 22/3/1
f 25/3/1 23/3/1 24/3/1
f 26/3/1 24/3/1 14/3/1
f 28/4/1 14/4/1 13/4/1
f 28/3/1 27/3/1 26/3/1
f 28/3/1 26/3/1 14/3/1
f 29/3/1 27/3/1 28/3/1
f 30/4/1 29/4/1 28/4/1
f 30/3/1 27/3/1 29/3/1
f 31/3/1 27/3/1 30/3/1
f 32/4/1 28/4/1 13/4/1
f 32/4/1 30/4/1 28/4/1
f 32/4/1 31/4/1 30/4/1
f 33/4/1 31/4/1 32/4/1
f 34/3/1 27/3/1 31/3/1
f 34/4/1 31/4/1 33/4/1
f 35/3/1 27/3/1 34/3/1
f 36/4/1 34/4/1 33/4/1
f 36/4/1 35/4/1 34/4/1
f 37/4/1 35/4/1 36/4/1
f 38/4/1 35/4/1 37/4/1
f 39/4/1 35/4/1 38/4/1
f 40/4/1 35/4/1 39/4/1
f 41/4/1 35/4/1 40/4/1
f 42/1/2 43/1/2 44/1/2
f 44/1/2 43/1/2 45/1/2
f 47/3/2 48/3/2 49/3/2
f 49/3/2 48/3/2 50/3/2
f 47/3/2 49/3/2 51/3/2
f 47/3/2 51/3/2 53/3/2
f 51/3/2 52/3/2 53/3/2
f 53/3/2 52/3/2 54/3/2
f 47/3/2 53/3/2 55/3/2
f 47/3/2 55/3/2 57/3/2
f 55/3/2 56/3/2 57/3/2
f 57/3/2 56/3/2 58/3/2
f 47/3/2 57/3/2 59/3/2
f 46/4/2 47/4/2 61/4/2
f 59/3/2 60/3/2 61/3/2
f 47/3/2 59/3/2 61/3/2
f 61/3/2 60/3/2 62/3/2
f 61/4/2 62/4/2 63/4/2
f 62/3/2 60/3/2 63/3/2
f 63/3/2 60/3/2 64/3/2
f 46/4/2 61/4/2 65/4/2
f 61/4/2 63/4/2 65/4/2
f 63/4/2 64/4/2 65/4/2
f 65/4/2 64/4/2 66/4/2
f 64/3/2 60/3/2 67/3/2
f 66/4/2 64/4/2 67/4/2
f 67/3/2 60/3/2 68/3/2
f 66/4/2 67/4/2 69/4/2
f 67/4/2 68/4/2 69/4/2
f 69/4/2 68/4/2 70/4/2
f 70/4/2 68/4/2 71/4/2
f 71/4/2 68/4/2 72/4/2
f 72/4/2 68/4/2 73/4/2
f 73/4/2 68/4/2 74/4/2
f 75/2/2 76/2/2 77/2/2
f 77/2/2 76/2/2 78/2/2
f 79/2/2 80/2/2 81/2/2
f 81/2/2 80/2/2 82/2/2
f 85/2/3 84/2/3 83/2/3
f 87/2/3 85/2/3 83/2/3
f 87/4/3 86/4/3 85/4/3
f 88/4/3 86/4/3 87/4/3
f 89/2/3 87/2/3 83/2/3
f 90/2/3 87/2/3 89/2/3
f 95/4/3 94/4/3 93/4/3
f 96/4/3 94/4/3 95/4/3
f 97/2/3 92/2/3 91/2/3
f 98/2/3 92/2/3 97/2/3
f 101/1/3 100/1/3 99/1/3
f 102/1/3 100/1/3 101/1/3
f 105/4/3 104/4/3 103/4/3
f 106/4/3 104/4/3 105/4/3
f 109/4/3 108/4/3 107/4/3
f 110/4/3 108/4/3 109/4/3
f 111/1/4 112/1/4 113/1/4
f 113/1/4 112/1/4 114/1/4
f 115/2/4 116/2/4 117/2/4
f 117/2/4 116/2/4 118/2/4
f 119/3/4 120/3/4 125/3/4
f 125/3/4 120/3/4 126/3/4
f 121/3/4 122/3/4 127/3/4
f 127/3/4 122/3/4 128/3/4
f 123/3/4 124/3/4 129/3/4
f 129/3/4 124/3/4 130/3/4
f 131/2/4 132/2/4 133/2/4
f 131/2/4 133/2/4 142/2/4
f 133/3/4 134/3/4 142/3/4
f 142/3/4 134/3/4 143/3/4
f 135/3/4 136/3/4 144/3/4
f 144/3/4 136/3/4 145/3/4
f 137/3/4 138/3/4 146/3/4
f 146/3/4 138/3/4 147/3/4
f 139/3/4 140/3/4 148/3/4
f 140/4/4 141/4/4 149/4/4
f 148/3/4 140/3/4 149/3/4
f 149/4/4 141/4/4 150/4/4
f 131/2/4 142/2/4 151/2/4
f 151/2/4 142/2/4 152/2/4
f 155/2/5 154/2/5 153/2/5
f 156/2/5 154/2/5 155/2/5
f 159/2/5 158/2/5 157/2/5
f 160/2/5 158/2/5 159/2/5
f 161/2/5 159/2/5 157/2/5
f 162/2/5 158/2/5 160/2/5
f 163/2/5 161/2/5 157/2/5
f 163/2/5 162/2/5 161/2/5
f 164/2/5 158/2/5 162/2/5
f 164/2/5 162/2/5 163/2/5
f 167/3/5 166/3/5 165/3/5
f 168/3/5 166/3/5 167/3/5
f 171/3/5 170/3/5 169/3/5
f 172/3/5 170/3/5 171/3/5
f 175/3/5 174/3/5 173/3/5
f 176/3/5 174/3/5 175/3/5
f 177/2/6 178/2/6 179/2/6
f 179/2/6 178/2/6 180/2/6
f 177/2/6 179/2/6 181/2/6
f 180/2/6 178/2/6 182/2/6
f 177/2/6 181/2/6 183/2/6
f 181/2/6 182/2/6 183/2/6
f 182/2/6 178/2/6 184/2/6
f 183/2/6 182/2/6 184/2/6
f 185/2/6 186/2/6 189/2/6
f 187/2/6 188/2/6 190/2/6
f 185/2/6 189/2/6 191/2/6
f 191/2/6 189/2/6 192/2/6
f 190/2/6 188/2/6 193/2/6
f 193/2/6 188/2/6 194/2/6
f 195/3/6 196/3/6 197/3/6
f 197/3/6 196/3/6 198/3/6
f 199/3/6 200/3/6 201/3/6
f 201/3/6 200/3/6 202/3/6
f 203/3/6 204/3/6 205/3/6
f 205/3/6 204/3/6 206/3/6
f 207/4/6 208/4/6 209/4/6
f 209/4/6 208/4/6 210/4/6
f 211/4/6 212/4/6 213/4/6
f 213/4/6 212/4/6 214/4/6
f 215/4/6 216/4/6 217/4/6
f 217/4/6 216/4/6 218/4/6
f 219/4/6 220/4/6 221/4/6
f 221/4/6 220/4/6 222/4/6
