# MagicaVoxel @ Ephtracy

# group
o 

# material
mtllib shield.mtl
usemtl palette

# normals
vn -1 0 0
vn 1 0 0
vn 0 0 1
vn 0 0 -1
vn 0 -1 0
vn 0 1 0

# texcoords
vt 0.00976563 0.5
vt 0.341797 0.5

# verts
v 0 -1.5 0.4
v 0 -1.5 -0.3
v 0 -1.4 0.7
v 0 -1.4 0.4
v 0 -1.4 -0.3
v 0 -1.4 -0.6
v 0 -1.3 0.9
v 0 -1.3 0.7
v 0 -1.3 -0.6
v 0 -1.3 -0.8
v 0 -1.2 1
v 0 -1.2 0.9
v 0 -1.2 -0.8
v 0 -1.2 -0.9
v 0 -1.1 1.1
v 0 -1.1 1
v 0 -1.1 -0.9
v 0 -1.1 -1
v 0 -1 1.2
v 0 -1 1.1
v 0 -1 -1
v 0 -1 -1.1
v 0 -0.9 1.3
v 0 -0.9 1.2
v 0 -0.9 -1.1
v 0 -0.9 -1.2
v 0 -0.8 1.4
v 0 -0.8 1.3
v 0 -0.8 -1.2
v 0 -0.8 -1.3
v 0 -0.6 1.5
v 0 -0.6 1.4
v 0 -0.6 -1.3
v 0 -0.6 -1.4
v 0 -0.3 1.6
v 0 -0.3 1.5
v 0 -0.3 -1.4
v 0 -0.3 -1.5
v 0 0.4 1.6
v 0 0.4 1.5
v 0 0.4 -1.4
v 0 0.4 -1.5
v 0 0.7 1.5
v 0 0.7 1.4
v 0 0.7 -1.3
v 0 0.7 -1.4
v 0 0.9 1.4
v 0 0.9 1.3
v 0 0.9 -1.2
v 0 0.9 -1.3
v 0 1 1.3
v 0 1 1.2
v 0 1 -1.1
v 0 1 -1.2
v 0 1.1 1.2
v 0 1.1 1.1
v 0 1.1 -1
v 0 1.1 -1.1
v 0 1.2 1.1
v 0 1.2 1
v 0 1.2 -0.9
v 0 1.2 -1
v 0 1.3 1
v 0 1.3 0.9
v 0 1.3 -0.8
v 0 1.3 -0.9
v 0 1.4 0.9
v 0 1.4 0.7
v 0 1.4 -0.6
v 0 1.4 -0.8
v 0 1.5 0.7
v 0 1.5 0.4
v 0 1.5 -0.3
v 0 1.5 -0.6
v 0 1.6 0.4
v 0 1.6 -0.3
v 0.1 -1.5 0.4
v 0.1 -1.5 0.1
v 0.1 -1.5 0
v 0.1 -1.5 -0.3
v 0.1 -1.4 0.7
v 0.1 -1.4 0.4
v 0.1 -1.4 -0.3
v 0.1 -1.4 -0.6
v 0.1 -1.3 0.9
v 0.1 -1.3 0.7
v 0.1 -1.3 -0.6
v 0.1 -1.3 -0.8
v 0.1 -1.2 1
v 0.1 -1.2 0.9
v 0.1 -1.2 -0.8
v 0.1 -1.2 -0.9
v 0.1 -1.1 1.1
v 0.1 -1.1 1
v 0.1 -1.1 -0.9
v 0.1 -1.1 -1
v 0.1 -1 1.2
v 0.1 -1 1.1
v 0.1 -1 -1
v 0.1 -1 -1.1
v 0.1 -0.9 1.3
v 0.1 -0.9 1.2
v 0.1 -0.9 -1.1
v 0.1 -0.9 -1.2
v 0.1 -0.8 1.4
v 0.1 -0.8 1.3
v 0.1 -0.8 -1.2
v 0.1 -0.8 -1.3
v 0.1 -0.7 0.9
v 0.1 -0.7 0.7
v 0.1 -0.7 -0.6
v 0.1 -0.7 -0.8
v 0.1 -0.6 1.5
v 0.1 -0.6 1.4
v 0.1 -0.6 -1.3
v 0.1 -0.6 -1.4
v 0.1 -0.5 0.9
v 0.1 -0.5 0.7
v 0.1 -0.5 -0.6
v 0.1 -0.5 -0.8
v 0.1 -0.3 1.6
v 0.1 -0.3 1.5
v 0.1 -0.3 -1.4
v 0.1 -0.3 -1.5
v 0.1 -0.1 0.2
v 0.1 -0.1 0.1
v 0.1 -0.1 0
v 0.1 -0.1 -0.1
v 0.1 0 1.6
v 0.1 0 0.2
v 0.1 0 -0.1
v 0.1 0 -1.5
v 0.1 0.1 1.6
v 0.1 0.1 0.2
v 0.1 0.1 -0.1
v 0.1 0.1 -1.5
v 0.1 0.2 0.2
v 0.1 0.2 0.1
v 0.1 0.2 0
v 0.1 0.2 -0.1
v 0.1 0.4 1.6
v 0.1 0.4 1.5
v 0.1 0.4 -1.4
v 0.1 0.4 -1.5
v 0.1 0.6 0.9
v 0.1 0.6 0.7
v 0.1 0.6 -0.6
v 0.1 0.6 -0.8
v 0.1 0.7 1.5
v 0.1 0.7 1.4
v 0.1 0.7 -1.3
v 0.1 0.7 -1.4
v 0.1 0.8 0.9
v 0.1 0.8 0.7
v 0.1 0.8 -0.6
v 0.1 0.8 -0.8
v 0.1 0.9 1.4
v 0.1 0.9 1.3
v 0.1 0.9 -1.2
v 0.1 0.9 -1.3
v 0.1 1 1.3
v 0.1 1 1.2
v 0.1 1 -1.1
v 0.1 1 -1.2
v 0.1 1.1 1.2
v 0.1 1.1 1.1
v 0.1 1.1 -1
v 0.1 1.1 -1.1
v 0.1 1.2 1.1
v 0.1 1.2 1
v 0.1 1.2 -0.9
v 0.1 1.2 -1
v 0.1 1.3 1
v 0.1 1.3 0.9
v 0.1 1.3 -0.8
v 0.1 1.3 -0.9
v 0.1 1.4 0.9
v 0.1 1.4 0.7
v 0.1 1.4 -0.6
v 0.1 1.4 -0.8
v 0.1 1.5 0.7
v 0.1 1.5 0.4
v 0.1 1.5 -0.3
v 0.1 1.5 -0.6
v 0.1 1.6 0.4
v 0.1 1.6 0.1
v 0.1 1.6 0
v 0.1 1.6 -0.3
v 0.2 -1.5 0.1
v 0.2 -1.5 0
v 0.2 -0.7 0.9
v 0.2 -0.7 0.7
v 0.2 -0.7 -0.6
v 0.2 -0.7 -0.8
v 0.2 -0.5 0.9
v 0.2 -0.5 0.7
v 0.2 -0.5 -0.6
v 0.2 -0.5 -0.8
v 0.2 -0.1 0.2
v 0.2 -0.1 0.1
v 0.2 -0.1 0
v 0.2 -0.1 -0.1
v 0.2 0 1.6
v 0.2 0 0.2
v 0.2 0 -0.1
v 0.2 0 -1.5
v 0.2 0.1 1.6
v 0.2 0.1 0.2
v 0.2 0.1 -0.1
v 0.2 0.1 -1.5
v 0.2 0.2 0.2
v 0.2 0.2 0.1
v 0.2 0.2 0
v 0.2 0.2 -0.1
v 0.2 0.6 0.9
v 0.2 0.6 0.7
v 0.2 0.6 -0.6
v 0.2 0.6 -0.8
v 0.2 0.8 0.9
v 0.2 0.8 0.7
v 0.2 0.8 -0.6
v 0.2 0.8 -0.8
v 0.2 1.6 0.1
v 0.2 1.6 0
v 0 -0.3 1.6
v 0 0.4 1.6
v 0.1 -0.3 1.6
v 0.1 0 1.6
v 0.1 0.1 1.6
v 0.1 0.4 1.6
v 0.2 0 1.6
v 0.2 0.1 1.6
v 0 -0.6 1.5
v 0 -0.3 1.5
v 0 0.4 1.5
v 0 0.7 1.5
v 0.1 -0.6 1.5
v 0.1 -0.3 1.5
v 0.1 0.4 1.5
v 0.1 0.7 1.5
v 0 -0.8 1.4
v 0 -0.6 1.4
v 0 0.7 1.4
v 0 0.9 1.4
v 0.1 -0.8 1.4
v 0.1 -0.6 1.4
v 0.1 0.7 1.4
v 0.1 0.9 1.4
v 0 -0.9 1.3
v 0 -0.8 1.3
v 0 0.9 1.3
v 0 1 1.3
v 0.1 -0.9 1.3
v 0.1 -0.8 1.3
v 0.1 0.9 1.3
v 0.1 1 1.3
v 0 -1 1.2
v 0 -0.9 1.2
v 0 1 1.2
v 0 1.1 1.2
v 0.1 -1 1.2
v 0.1 -0.9 1.2
v 0.1 1 1.2
v 0.1 1.1 1.2
v 0 -1.1 1.1
v 0 -1 1.1
v 0 1.1 1.1
v 0 1.2 1.1
v 0.1 -1.1 1.1
v 0.1 -1 1.1
v 0.1 1.1 1.1
v 0.1 1.2 1.1
v 0 -1.2 1
v 0 -1.1 1
v 0 1.2 1
v 0 1.3 1
v 0.1 -1.2 1
v 0.1 -1.1 1
v 0.1 1.2 1
v 0.1 1.3 1
v 0 -1.3 0.9
v 0 -1.2 0.9
v 0 1.3 0.9
v 0 1.4 0.9
v 0.1 -1.3 0.9
v 0.1 -1.2 0.9
v 0.1 -0.7 0.9
v 0.1 -0.5 0.9
v 0.1 0.6 0.9
v 0.1 0.8 0.9
v 0.1 1.3 0.9
v 0.1 1.4 0.9
v 0.2 -0.7 0.9
v 0.2 -0.5 0.9
v 0.2 0.6 0.9
v 0.2 0.8 0.9
v 0 -1.4 0.7
v 0 -1.3 0.7
v 0 1.4 0.7
v 0 1.5 0.7
v 0.1 -1.4 0.7
v 0.1 -1.3 0.7
v 0.1 1.4 0.7
v 0.1 1.5 0.7
v 0 -1.5 0.4
v 0 -1.4 0.4
v 0 1.5 0.4
v 0 1.6 0.4
v 0.1 -1.5 0.4
v 0.1 -1.4 0.4
v 0.1 1.5 0.4
v 0.1 1.6 0.4
v 0.1 -0.1 0.2
v 0.1 0 0.2
v 0.1 0.1 0.2
v 0.1 0.2 0.2
v 0.2 -0.1 0.2
v 0.2 0 0.2
v 0.2 0.1 0.2
v 0.2 0.2 0.2
v 0.1 -1.5 0.1
v 0.1 -0.1 0.1
v 0.1 0.2 0.1
v 0.1 1.6 0.1
v 0.2 -1.5 0.1
v 0.2 -0.1 0.1
v 0.2 0.2 0.1
v 0.2 1.6 0.1
v 0.1 -0.7 -0.6
v 0.1 -0.5 -0.6
v 0.1 0.6 -0.6
v 0.1 0.8 -0.6
v 0.2 -0.7 -0.6
v 0.2 -0.5 -0.6
v 0.2 0.6 -0.6
v 0.2 0.8 -0.6
v 0.1 -0.7 0.7
v 0.1 -0.5 0.7
v 0.1 0.6 0.7
v 0.1 0.8 0.7
v 0.2 -0.7 0.7
v 0.2 -0.5 0.7
v 0.2 0.6 0.7
v 0.2 0.8 0.7
v 0.1 -1.5 0
v 0.1 -0.1 0
v 0.1 0.2 0
v 0.1 1.6 0
v 0.2 -1.5 0
v 0.2 -0.1 0
v 0.2 0.2 0
v 0.2 1.6 0
v 0.1 -0.1 -0.1
v 0.1 0 -0.1
v 0.1 0.1 -0.1
v 0.1 0.2 -0.1
v 0.2 -0.1 -0.1
v 0.2 0 -0.1
v 0.2 0.1 -0.1
v 0.2 0.2 -0.1
v 0 -1.5 -0.3
v 0 -1.4 -0.3
v 0 1.5 -0.3
v 0 1.6 -0.3
v 0.1 -1.5 -0.3
v 0.1 -1.4 -0.3
v 0.1 1.5 -0.3
v 0.1 1.6 -0.3
v 0 -1.4 -0.6
v 0 -1.3 -0.6
v 0 1.4 -0.6
v 0 1.5 -0.6
v 0.1 -1.4 -0.6
v 0.1 -1.3 -0.6
v 0.1 1.4 -0.6
v 0.1 1.5 -0.6
v 0 -1.3 -0.8
v 0 -1.2 -0.8
v 0 1.3 -0.8
v 0 1.4 -0.8
v 0.1 -1.3 -0.8
v 0.1 -1.2 -0.8
v 0.1 -0.7 -0.8
v 0.1 -0.5 -0.8
v 0.1 0.6 -0.8
v 0.1 0.8 -0.8
v 0.1 1.3 -0.8
v 0.1 1.4 -0.8
v 0.2 -0.7 -0.8
v 0.2 -0.5 -0.8
v 0.2 0.6 -0.8
v 0.2 0.8 -0.8
v 0 -1.2 -0.9
v 0 -1.1 -0.9
v 0 1.2 -0.9
v 0 1.3 -0.9
v 0.1 -1.2 -0.9
v 0.1 -1.1 -0.9
v 0.1 1.2 -0.9
v 0.1 1.3 -0.9
v 0 -1.1 -1
v 0 -1 -1
v 0 1.1 -1
v 0 1.2 -1
v 0.1 -1.1 -1
v 0.1 -1 -1
v 0.1 1.1 -1
v 0.1 1.2 -1
v 0 -1 -1.1
v 0 -0.9 -1.1
v 0 1 -1.1
v 0 1.1 -1.1
v 0.1 -1 -1.1
v 0.1 -0.9 -1.1
v 0.1 1 -1.1
v 0.1 1.1 -1.1
v 0 -0.9 -1.2
v 0 -0.8 -1.2
v 0 0.9 -1.2
v 0 1 -1.2
v 0.1 -0.9 -1.2
v 0.1 -0.8 -1.2
v 0.1 0.9 -1.2
v 0.1 1 -1.2
v 0 -0.8 -1.3
v 0 -0.6 -1.3
v 0 0.7 -1.3
v 0 0.9 -1.3
v 0.1 -0.8 -1.3
v 0.1 -0.6 -1.3
v 0.1 0.7 -1.3
v 0.1 0.9 -1.3
v 0 -0.6 -1.4
v 0 -0.3 -1.4
v 0 0.4 -1.4
v 0 0.7 -1.4
v 0.1 -0.6 -1.4
v 0.1 -0.3 -1.4
v 0.1 0.4 -1.4
v 0.1 0.7 -1.4
v 0 -0.3 -1.5
v 0 0.4 -1.5
v 0.1 -0.3 -1.5
v 0.1 0 -1.5
v 0.1 0.1 -1.5
v 0.1 0.4 -1.5
v 0.2 0 -1.5
v 0.2 0.1 -1.5
v 0 -1.5 0.4
v 0.1 -1.5 0.4
v 0.1 -1.5 0.1
v 0.2 -1.5 0.1
v 0.1 -1.5 0
v 0.2 -1.5 0
v 0 -1.5 -0.3
v 0.1 -1.5 -0.3
v 0 -1.4 0.7
v 0.1 -1.4 0.7
v 0 -1.4 0.4
v 0.1 -1.4 0.4
v 0 -1.4 -0.3
v 0.1 -1.4 -0.3
v 0 -1.4 -0.6
v 0.1 -1.4 -0.6
v 0 -1.3 0.9
v 0.1 -1.3 0.9
v 0 -1.3 0.7
v 0.1 -1.3 0.7
v 0 -1.3 -0.6
v 0.1 -1.3 -0.6
v 0 -1.3 -0.8
v 0.1 -1.3 -0.8
v 0 -1.2 1
v 0.1 -1.2 1
v 0 -1.2 0.9
v 0.1 -1.2 0.9
v 0 -1.2 -0.8
v 0.1 -1.2 -0.8
v 0 -1.2 -0.9
v 0.1 -1.2 -0.9
v 0 -1.1 1.1
v 0.1 -1.1 1.1
v 0 -1.1 1
v 0.1 -1.1 1
v 0 -1.1 -0.9
v 0.1 -1.1 -0.9
v 0 -1.1 -1
v 0.1 -1.1 -1
v 0 -1 1.2
v 0.1 -1 1.2
v 0 -1 1.1
v 0.1 -1 1.1
v 0 -1 -1
v 0.1 -1 -1
v 0 -1 -1.1
v 0.1 -1 -1.1
v 0 -0.9 1.3
v 0.1 -0.9 1.3
v 0 -0.9 1.2
v 0.1 -0.9 1.2
v 0 -0.9 -1.1
v 0.1 -0.9 -1.1
v 0 -0.9 -1.2
v 0.1 -0.9 -1.2
v 0 -0.8 1.4
v 0.1 -0.8 1.4
v 0 -0.8 1.3
v 0.1 -0.8 1.3
v 0 -0.8 -1.2
v 0.1 -0.8 -1.2
v 0 -0.8 -1.3
v 0.1 -0.8 -1.3
v 0.1 -0.7 0.9
v 0.2 -0.7 0.9
v 0.1 -0.7 0.7
v 0.2 -0.7 0.7
v 0.1 -0.7 -0.6
v 0.2 -0.7 -0.6
v 0.1 -0.7 -0.8
v 0.2 -0.7 -0.8
v 0 -0.6 1.5
v 0.1 -0.6 1.5
v 0 -0.6 1.4
v 0.1 -0.6 1.4
v 0 -0.6 -1.3
v 0.1 -0.6 -1.3
v 0 -0.6 -1.4
v 0.1 -0.6 -1.4
v 0 -0.3 1.6
v 0.1 -0.3 1.6
v 0 -0.3 1.5
v 0.1 -0.3 1.5
v 0 -0.3 -1.4
v 0.1 -0.3 -1.4
v 0 -0.3 -1.5
v 0.1 -0.3 -1.5
v 0.1 -0.1 0.2
v 0.2 -0.1 0.2
v 0.1 -0.1 0.1
v 0.2 -0.1 0.1
v 0.1 -0.1 0
v 0.2 -0.1 0
v 0.1 -0.1 -0.1
v 0.2 -0.1 -0.1
v 0.1 0 1.6
v 0.2 0 1.6
v 0.1 0 0.2
v 0.2 0 0.2
v 0.1 0 -0.1
v 0.2 0 -0.1
v 0.1 0 -1.5
v 0.2 0 -1.5
v 0.1 0.6 0.9
v 0.2 0.6 0.9
v 0.1 0.6 0.7
v 0.2 0.6 0.7
v 0.1 0.6 -0.6
v 0.2 0.6 -0.6
v 0.1 0.6 -0.8
v 0.2 0.6 -0.8
v 0.1 -0.5 0.9
v 0.2 -0.5 0.9
v 0.1 -0.5 0.7
v 0.2 -0.5 0.7
v 0.1 -0.5 -0.6
v 0.2 -0.5 -0.6
v 0.1 -0.5 -0.8
v 0.2 -0.5 -0.8
v 0.1 0.1 1.6
v 0.2 0.1 1.6
v 0.1 0.1 0.2
v 0.2 0.1 0.2
v 0.1 0.1 -0.1
v 0.2 0.1 -0.1
v 0.1 0.1 -1.5
v 0.2 0.1 -1.5
v 0.1 0.2 0.2
v 0.2 0.2 0.2
v 0.1 0.2 0.1
v 0.2 0.2 0.1
v 0.1 0.2 0
v 0.2 0.2 0
v 0.1 0.2 -0.1
v 0.2 0.2 -0.1
v 0 0.4 1.6
v 0.1 0.4 1.6
v 0 0.4 1.5
v 0.1 0.4 1.5
v 0 0.4 -1.4
v 0.1 0.4 -1.4
v 0 0.4 -1.5
v 0.1 0.4 -1.5
v 0 0.7 1.5
v 0.1 0.7 1.5
v 0 0.7 1.4
v 0.1 0.7 1.4
v 0 0.7 -1.3
v 0.1 0.7 -1.3
v 0 0.7 -1.4
v 0.1 0.7 -1.4
v 0.1 0.8 0.9
v 0.2 0.8 0.9
v 0.1 0.8 0.7
v 0.2 0.8 0.7
v 0.1 0.8 -0.6
v 0.2 0.8 -0.6
v 0.1 0.8 -0.8
v 0.2 0.8 -0.8
v 0 0.9 1.4
v 0.1 0.9 1.4
v 0 0.9 1.3
v 0.1 0.9 1.3
v 0 0.9 -1.2
v 0.1 0.9 -1.2
v 0 0.9 -1.3
v 0.1 0.9 -1.3
v 0 1 1.3
v 0.1 1 1.3
v 0 1 1.2
v 0.1 1 1.2
v 0 1 -1.1
v 0.1 1 -1.1
v 0 1 -1.2
v 0.1 1 -1.2
v 0 1.1 1.2
v 0.1 1.1 1.2
v 0 1.1 1.1
v 0.1 1.1 1.1
v 0 1.1 -1
v 0.1 1.1 -1
v 0 1.1 -1.1
v 0.1 1.1 -1.1
v 0 1.2 1.1
v 0.1 1.2 1.1
v 0 1.2 1
v 0.1 1.2 1
v 0 1.2 -0.9
v 0.1 1.2 -0.9
v 0 1.2 -1
v 0.1 1.2 -1
v 0 1.3 1
v 0.1 1.3 1
v 0 1.3 0.9
v 0.1 1.3 0.9
v 0 1.3 -0.8
v 0.1 1.3 -0.8
v 0 1.3 -0.9
v 0.1 1.3 -0.9
v 0 1.4 0.9
v 0.1 1.4 0.9
v 0 1.4 0.7
v 0.1 1.4 0.7
v 0 1.4 -0.6
v 0.1 1.4 -0.6
v 0 1.4 -0.8
v 0.1 1.4 -0.8
v 0 1.5 0.7
v 0.1 1.5 0.7
v 0 1.5 0.4
v 0.1 1.5 0.4
v 0 1.5 -0.3
v 0.1 1.5 -0.3
v 0 1.5 -0.6
v 0.1 1.5 -0.6
v 0 1.6 0.4
v 0.1 1.6 0.4
v 0.1 1.6 0.1
v 0.2 1.6 0.1
v 0.1 1.6 0
v 0.2 1.6 0
v 0 1.6 -0.3
v 0.1 1.6 -0.3

# faces
f 4/1/1 2/1/1 1/1/1
f 5/1/1 2/1/1 4/1/1
f 8/1/1 4/1/1 3/1/1
f 8/1/1 6/1/1 5/1/1
f 8/1/1 5/1/1 4/1/1
f 9/1/1 6/1/1 8/1/1
f 12/1/1 8/1/1 7/1/1
f 12/1/1 10/1/1 9/1/1
f 12/1/1 9/1/1 8/1/1
f 13/1/1 10/1/1 12/1/1
f 16/1/1 12/1/1 11/1/1
f 16/1/1 14/1/1 13/1/1
f 16/1/1 13/1/1 12/1/1
f 17/1/1 14/1/1 16/1/1
f 20/1/1 16/1/1 15/1/1
f 20/1/1 18/1/1 17/1/1
f 20/1/1 17/1/1 16/1/1
f 21/1/1 18/1/1 20/1/1
f 24/1/1 20/1/1 19/1/1
f 24/1/1 22/1/1 21/1/1
f 24/1/1 21/1/1 20/1/1
f 25/1/1 22/1/1 24/1/1
f 28/1/1 24/1/1 23/1/1
f 28/1/1 26/1/1 25/1/1
f 28/1/1 25/1/1 24/1/1
f 29/1/1 26/1/1 28/1/1
f 32/1/1 28/1/1 27/1/1
f 32/1/1 30/1/1 29/1/1
f 32/1/1 29/1/1 28/1/1
f 33/1/1 30/1/1 32/1/1
f 36/1/1 32/1/1 31/1/1
f 36/1/1 34/1/1 33/1/1
f 36/1/1 33/1/1 32/1/1
f 37/1/1 34/1/1 36/1/1
f 39/1/1 36/1/1 35/1/1
f 39/1/1 38/1/1 37/1/1
f 39/1/1 37/1/1 36/1/1
f 40/1/1 38/1/1 39/1/1
f 41/1/1 38/1/1 40/1/1
f 42/1/1 38/1/1 41/1/1
f 43/1/1 41/1/1 40/1/1
f 44/1/1 41/1/1 43/1/1
f 45/1/1 41/1/1 44/1/1
f 46/1/1 41/1/1 45/1/1
f 47/1/1 45/1/1 44/1/1
f 48/1/1 45/1/1 47/1/1
f 49/1/1 45/1/1 48/1/1
f 50/1/1 45/1/1 49/1/1
f 51/1/1 49/1/1 48/1/1
f 52/1/1 49/1/1 51/1/1
f 53/1/1 49/1/1 52/1/1
f 54/1/1 49/1/1 53/1/1
f 55/1/1 53/1/1 52/1/1
f 56/1/1 53/1/1 55/1/1
f 57/1/1 53/1/1 56/1/1
f 58/1/1 53/1/1 57/1/1
f 59/1/1 57/1/1 56/1/1
f 60/1/1 57/1/1 59/1/1
f 61/1/1 57/1/1 60/1/1
f 62/1/1 57/1/1 61/1/1
f 63/1/1 61/1/1 60/1/1
f 64/1/1 61/1/1 63/1/1
f 65/1/1 61/1/1 64/1/1
f 66/1/1 61/1/1 65/1/1
f 67/1/1 65/1/1 64/1/1
f 68/1/1 65/1/1 67/1/1
f 69/1/1 65/1/1 68/1/1
f 70/1/1 65/1/1 69/1/1
f 71/1/1 69/1/1 68/1/1
f 72/1/1 69/1/1 71/1/1
f 73/1/1 69/1/1 72/1/1
f 74/1/1 69/1/1 73/1/1
f 75/1/1 73/1/1 72/1/1
f 76/1/1 73/1/1 75/1/1
f 77/1/2 78/1/2 82/1/2
f 79/1/2 80/1/2 83/1/2
f 81/1/2 82/1/2 86/1/2
f 83/1/2 84/1/2 87/1/2
f 85/1/2 86/1/2 90/1/2
f 87/1/2 88/1/2 91/1/2
f 89/1/2 90/1/2 94/1/2
f 91/1/2 92/1/2 95/1/2
f 93/1/2 94/1/2 98/1/2
f 95/1/2 96/1/2 99/1/2
f 97/1/2 98/1/2 102/1/2
f 99/1/2 100/1/2 103/1/2
f 101/1/2 102/1/2 106/1/2
f 103/1/2 104/1/2 107/1/2
f 105/1/2 106/1/2 109/1/2
f 90/1/2 86/1/2 109/1/2
f 94/1/2 90/1/2 109/1/2
f 106/1/2 102/1/2 109/1/2
f 98/1/2 94/1/2 109/1/2
f 102/1/2 98/1/2 109/1/2
f 86/1/2 82/1/2 110/1/2
f 109/1/2 86/1/2 110/1/2
f 107/1/2 108/1/2 111/1/2
f 83/1/2 87/1/2 111/1/2
f 103/1/2 107/1/2 111/1/2
f 87/1/2 91/1/2 111/1/2
f 95/1/2 99/1/2 111/1/2
f 99/1/2 103/1/2 111/1/2
f 91/1/2 95/1/2 111/1/2
f 111/1/2 108/1/2 112/1/2
f 105/1/2 109/1/2 114/1/2
f 112/1/2 108/1/2 115/1/2
f 113/1/2 114/1/2 117/1/2
f 114/1/2 109/1/2 117/1/2
f 110/1/2 82/1/2 118/1/2
f 83/1/2 111/1/2 119/1/2
f 115/1/2 116/1/2 120/1/2
f 112/1/2 115/1/2 120/1/2
f 113/1/2 117/1/2 122/1/2
f 117/1/2 118/1/2 122/1/2
f 119/1/2 120/1/2 123/1/2
f 120/1/2 116/1/2 123/1/2
f 121/1/2 122/1/2 125/1/2
f 82/1/2 78/1/2 125/1/2
f 122/1/2 118/1/2 125/1/2
f 118/1/2 82/1/2 125/1/2
f 125/1/2 78/1/2 126/1/2
f 123/1/2 124/1/2 127/1/2
f 119/1/2 123/1/2 127/1/2
f 79/1/2 83/1/2 127/1/2
f 83/1/2 119/1/2 127/1/2
f 127/1/2 124/1/2 128/1/2
f 121/1/2 125/1/2 129/1/2
f 129/1/2 125/1/2 130/1/2
f 128/1/2 124/1/2 131/1/2
f 131/1/2 124/1/2 132/1/2
f 133/1/2 134/1/2 137/1/2
f 135/1/2 136/1/2 140/1/2
f 137/1/2 138/1/2 141/1/2
f 133/1/2 137/1/2 141/1/2
f 141/1/2 138/1/2 142/1/2
f 139/1/2 140/1/2 143/1/2
f 140/1/2 136/1/2 143/1/2
f 143/1/2 136/1/2 144/1/2
f 142/1/2 138/1/2 145/1/2
f 145/1/2 138/1/2 146/1/2
f 139/1/2 143/1/2 147/1/2
f 147/1/2 143/1/2 148/1/2
f 142/1/2 145/1/2 149/1/2
f 149/1/2 145/1/2 150/1/2
f 148/1/2 143/1/2 151/1/2
f 151/1/2 143/1/2 152/1/2
f 150/1/2 145/1/2 153/1/2
f 146/1/2 138/1/2 154/1/2
f 139/1/2 147/1/2 155/1/2
f 148/1/2 151/1/2 156/1/2
f 150/1/2 153/1/2 157/1/2
f 153/1/2 154/1/2 157/1/2
f 157/1/2 154/1/2 158/1/2
f 155/1/2 156/1/2 159/1/2
f 156/1/2 151/1/2 159/1/2
f 159/1/2 151/1/2 160/1/2
f 158/1/2 154/1/2 161/1/2
f 161/1/2 154/1/2 162/1/2
f 155/1/2 159/1/2 163/1/2
f 163/1/2 159/1/2 164/1/2
f 162/1/2 154/1/2 165/1/2
f 165/1/2 154/1/2 166/1/2
f 155/1/2 163/1/2 167/1/2
f 167/1/2 163/1/2 168/1/2
f 166/1/2 154/1/2 169/1/2
f 169/1/2 154/1/2 170/1/2
f 155/1/2 167/1/2 171/1/2
f 171/1/2 167/1/2 172/1/2
f 170/1/2 154/1/2 173/1/2
f 173/1/2 154/1/2 174/1/2
f 155/1/2 171/1/2 175/1/2
f 175/1/2 171/1/2 176/1/2
f 174/1/2 154/1/2 177/1/2
f 154/1/2 138/1/2 178/1/2
f 177/1/2 154/1/2 178/1/2
f 139/1/2 155/1/2 179/1/2
f 155/1/2 175/1/2 179/1/2
f 179/1/2 175/1/2 180/1/2
f 178/1/2 138/1/2 181/1/2
f 181/1/2 138/1/2 182/1/2
f 139/1/2 179/1/2 183/1/2
f 183/1/2 179/1/2 184/1/2
f 182/1/2 138/1/2 185/1/2
f 185/1/2 138/1/2 186/1/2
f 139/1/2 183/1/2 187/1/2
f 187/1/2 183/1/2 188/1/2
f 191/2/2 192/2/2 195/2/2
f 195/2/2 192/2/2 196/2/2
f 193/2/2 194/2/2 197/2/2
f 197/2/2 194/2/2 198/2/2
f 189/2/2 190/2/2 200/2/2
f 200/2/2 190/2/2 201/2/2
f 199/2/2 200/2/2 204/2/2
f 201/2/2 202/2/2 204/2/2
f 200/2/2 201/2/2 204/2/2
f 204/2/2 202/2/2 205/2/2
f 204/2/2 205/2/2 207/2/2
f 205/2/2 206/2/2 207/2/2
f 203/2/2 204/2/2 207/2/2
f 207/2/2 206/2/2 208/2/2
f 208/2/2 206/2/2 209/2/2
f 209/2/2 206/2/2 210/2/2
f 208/2/2 209/2/2 211/2/2
f 211/2/2 209/2/2 212/2/2
f 212/2/2 209/2/2 213/2/2
f 213/2/2 209/2/2 214/2/2
f 215/2/2 216/2/2 219/2/2
f 219/2/2 216/2/2 220/2/2
f 217/2/2 218/2/2 221/2/2
f 221/2/2 218/2/2 222/2/2
f 212/2/2 213/2/2 223/2/2
f 223/2/2 213/2/2 224/2/2
f 227/1/3 226/1/3 225/1/3
f 228/1/3 226/1/3 227/1/3
f 229/1/3 226/1/3 228/1/3
f 230/1/3 226/1/3 229/1/3
f 231/2/3 229/2/3 228/2/3
f 232/2/3 229/2/3 231/2/3
f 237/1/3 234/1/3 233/1/3
f 238/1/3 234/1/3 237/1/3
f 239/1/3 236/1/3 235/1/3
f 240/1/3 236/1/3 239/1/3
f 245/1/3 242/1/3 241/1/3
f 246/1/3 242/1/3 245/1/3
f 247/1/3 244/1/3 243/1/3
f 248/1/3 244/1/3 247/1/3
f 253/1/3 250/1/3 249/1/3
f 254/1/3 250/1/3 253/1/3
f 255/1/3 252/1/3 251/1/3
f 256/1/3 252/1/3 255/1/3
f 261/1/3 258/1/3 257/1/3
f 262/1/3 258/1/3 261/1/3
f 263/1/3 260/1/3 259/1/3
f 264/1/3 260/1/3 263/1/3
f 269/1/3 266/1/3 265/1/3
f 270/1/3 266/1/3 269/1/3
f 271/1/3 268/1/3 267/1/3
f 272/1/3 268/1/3 271/1/3
f 277/1/3 274/1/3 273/1/3
f 278/1/3 274/1/3 277/1/3
f 279/1/3 276/1/3 275/1/3
f 280/1/3 276/1/3 279/1/3
f 285/1/3 282/1/3 281/1/3
f 286/1/3 282/1/3 285/1/3
f 291/1/3 284/1/3 283/1/3
f 292/1/3 284/1/3 291/1/3
f 293/2/3 288/2/3 287/2/3
f 294/2/3 288/2/3 293/2/3
f 295/2/3 290/2/3 289/2/3
f 296/2/3 290/2/3 295/2/3
f 301/1/3 298/1/3 297/1/3
f 302/1/3 298/1/3 301/1/3
f 303/1/3 300/1/3 299/1/3
f 304/1/3 300/1/3 303/1/3
f 309/1/3 306/1/3 305/1/3
f 310/1/3 306/1/3 309/1/3
f 311/1/3 308/1/3 307/1/3
f 312/1/3 308/1/3 311/1/3
f 317/2/3 314/2/3 313/2/3
f 318/2/3 314/2/3 317/2/3
f 319/2/3 316/2/3 315/2/3
f 320/2/3 316/2/3 319/2/3
f 325/2/3 322/2/3 321/2/3
f 326/2/3 322/2/3 325/2/3
f 327/2/3 324/2/3 323/2/3
f 328/2/3 324/2/3 327/2/3
f 333/2/3 330/2/3 329/2/3
f 334/2/3 330/2/3 333/2/3
f 335/2/3 332/2/3 331/2/3
f 336/2/3 332/2/3 335/2/3
f 337/2/4 338/2/4 341/2/4
f 341/2/4 338/2/4 342/2/4
f 339/2/4 340/2/4 343/2/4
f 343/2/4 340/2/4 344/2/4
f 345/2/4 346/2/4 349/2/4
f 349/2/4 346/2/4 350/2/4
f 347/2/4 348/2/4 351/2/4
f 351/2/4 348/2/4 352/2/4
f 353/2/4 354/2/4 357/2/4
f 357/2/4 354/2/4 358/2/4
f 355/2/4 356/2/4 359/2/4
f 359/2/4 356/2/4 360/2/4
f 361/1/4 362/1/4 365/1/4
f 365/1/4 362/1/4 366/1/4
f 363/1/4 364/1/4 367/1/4
f 367/1/4 364/1/4 368/1/4
f 369/1/4 370/1/4 373/1/4
f 373/1/4 370/1/4 374/1/4
f 371/1/4 372/1/4 375/1/4
f 375/1/4 372/1/4 376/1/4
f 377/1/4 378/1/4 381/1/4
f 381/1/4 378/1/4 382/1/4
f 379/1/4 380/1/4 387/1/4
f 387/1/4 380/1/4 388/1/4
f 383/2/4 384/2/4 389/2/4
f 389/2/4 384/2/4 390/2/4
f 385/2/4 386/2/4 391/2/4
f 391/2/4 386/2/4 392/2/4
f 393/1/4 394/1/4 397/1/4
f 397/1/4 394/1/4 398/1/4
f 395/1/4 396/1/4 399/1/4
f 399/1/4 396/1/4 400/1/4
f 401/1/4 402/1/4 405/1/4
f 405/1/4 402/1/4 406/1/4
f 403/1/4 404/1/4 407/1/4
f 407/1/4 404/1/4 408/1/4
f 409/1/4 410/1/4 413/1/4
f 413/1/4 410/1/4 414/1/4
f 411/1/4 412/1/4 415/1/4
f 415/1/4 412/1/4 416/1/4
f 417/1/4 418/1/4 421/1/4
f 421/1/4 418/1/4 422/1/4
f 419/1/4 420/1/4 423/1/4
f 423/1/4 420/1/4 424/1/4
f 425/1/4 426/1/4 429/1/4
f 429/1/4 426/1/4 430/1/4
f 427/1/4 428/1/4 431/1/4
f 431/1/4 428/1/4 432/1/4
f 433/1/4 434/1/4 437/1/4
f 437/1/4 434/1/4 438/1/4
f 435/1/4 436/1/4 439/1/4
f 439/1/4 436/1/4 440/1/4
f 441/1/4 442/1/4 443/1/4
f 443/1/4 442/1/4 444/1/4
f 444/1/4 442/1/4 445/1/4
f 445/1/4 442/1/4 446/1/4
f 444/2/4 445/2/4 447/2/4
f 447/2/4 445/2/4 448/2/4
f 451/1/5 450/1/5 449/1/5
f 453/1/5 451/1/5 449/1/5
f 453/2/5 452/2/5 451/2/5
f 454/2/5 452/2/5 453/2/5
f 455/1/5 453/1/5 449/1/5
f 456/1/5 453/1/5 455/1/5
f 459/1/5 458/1/5 457/1/5
f 460/1/5 458/1/5 459/1/5
f 463/1/5 462/1/5 461/1/5
f 464/1/5 462/1/5 463/1/5
f 467/1/5 466/1/5 465/1/5
f 468/1/5 466/1/5 467/1/5
f 471/1/5 470/1/5 469/1/5
f 472/1/5 470/1/5 471/1/5
f 475/1/5 474/1/5 473/1/5
f 476/1/5 474/1/5 475/1/5
f 479/1/5 478/1/5 477/1/5
f 480/1/5 478/1/5 479/1/5
f 483/1/5 482/1/5 481/1/5
f 484/1/5 482/1/5 483/1/5
f 487/1/5 486/1/5 485/1/5
f 488/1/5 486/1/5 487/1/5
f 491/1/5 490/1/5 489/1/5
f 492/1/5 490/1/5 491/1/5
f 495/1/5 494/1/5 493/1/5
f 496/1/5 494/1/5 495/1/5
f 499/1/5 498/1/5 497/1/5
f 500/1/5 498/1/5 499/1/5
f 503/1/5 502/1/5 501/1/5
f 504/1/5 502/1/5 503/1/5
f 507/1/5 506/1/5 505/1/5
f 508/1/5 506/1/5 507/1/5
f 511/1/5 510/1/5 509/1/5
f 512/1/5 510/1/5 511/1/5
f 515/2/5 514/2/5 513/2/5
f 516/2/5 514/2/5 515/2/5
f 519/2/5 518/2/5 517/2/5
f 520/2/5 518/2/5 519/2/5
f 523/1/5 522/1/5 521/1/5
f 524/1/5 522/1/5 523/1/5
f 527/1/5 526/1/5 525/1/5
f 528/1/5 526/1/5 527/1/5
f 531/1/5 530/1/5 529/1/5
f 532/1/5 530/1/5 531/1/5
f 535/1/5 534/1/5 533/1/5
f 536/1/5 534/1/5 535/1/5
f 539/2/5 538/2/5 537/2/5
f 540/2/5 538/2/5 539/2/5
f 543/2/5 542/2/5 541/2/5
f 544/2/5 542/2/5 543/2/5
f 547/2/5 546/2/5 545/2/5
f 548/2/5 546/2/5 547/2/5
f 551/2/5 550/2/5 549/2/5
f 552/2/5 550/2/5 551/2/5
f 555/2/5 554/2/5 553/2/5
f 556/2/5 554/2/5 555/2/5
f 559/2/5 558/2/5 557/2/5
f 560/2/5 558/2/5 559/2/5
f 561/2/6 562/2/6 563/2/6
f 563/2/6 562/2/6 564/2/6
f 565/2/6 566/2/6 567/2/6
f 567/2/6 566/2/6 568/2/6
f 569/2/6 570/2/6 571/2/6
f 571/2/6 570/2/6 572/2/6
f 573/2/6 574/2/6 575/2/6
f 575/2/6 574/2/6 576/2/6
f 577/2/6 578/2/6 579/2/6
f 579/2/6 578/2/6 580/2/6
f 581/2/6 582/2/6 583/2/6
f 583/2/6 582/2/6 584/2/6
f 585/1/6 586/1/6 587/1/6
f 587/1/6 586/1/6 588/1/6
f 589/1/6 590/1/6 591/1/6
f 591/1/6 590/1/6 592/1/6
f 593/1/6 594/1/6 595/1/6
f 595/1/6 594/1/6 596/1/6
f 597/1/6 598/1/6 599/1/6
f 599/1/6 598/1/6 600/1/6
f 601/2/6 602/2/6 603/2/6
f 603/2/6 602/2/6 604/2/6
f 605/2/6 606/2/6 607/2/6
f 607/2/6 606/2/6 608/2/6
f 609/1/6 610/1/6 611/1/6
f 611/1/6 610/1/6 612/1/6
f 613/1/6 614/1/6 615/1/6
f 615/1/6 614/1/6 616/1/6
f 617/1/6 618/1/6 619/1/6
f 619/1/6 618/1/6 620/1/6
f 621/1/6 622/1/6 623/1/6
f 623/1/6 622/1/6 624/1/6
f 625/1/6 626/1/6 627/1/6
f 627/1/6 626/1/6 628/1/6
f 629/1/6 630/1/6 631/1/6
f 631/1/6 630/1/6 632/1/6
f 633/1/6 634/1/6 635/1/6
f 635/1/6 634/1/6 636/1/6
f 637/1/6 638/1/6 639/1/6
f 639/1/6 638/1/6 640/1/6
f 641/1/6 642/1/6 643/1/6
f 643/1/6 642/1/6 644/1/6
f 645/1/6 646/1/6 647/1/6
f 647/1/6 646/1/6 648/1/6
f 649/1/6 650/1/6 651/1/6
f 651/1/6 650/1/6 652/1/6
f 653/1/6 654/1/6 655/1/6
f 655/1/6 654/1/6 656/1/6
f 657/1/6 658/1/6 659/1/6
f 659/1/6 658/1/6 660/1/6
f 661/1/6 662/1/6 663/1/6
f 663/1/6 662/1/6 664/1/6
f 665/1/6 666/1/6 667/1/6
f 665/1/6 667/1/6 669/1/6
f 667/2/6 668/2/6 669/2/6
f 669/2/6 668/2/6 670/2/6
f 665/1/6 669/1/6 671/1/6
f 671/1/6 669/1/6 672/1/6
