# MagicaVoxel @ Ephtracy

# group
o sand_grass_edge_I

# material
mtllib terrain-13-sand_grass_edge_I.mtl
usemtl palette

# normals
vn 0 0 1
vn 0 0 -1
vn 1 0 0
vn -1 0 0
vn 0 -1 0
vn 0 1 0

# texcoords
vt 0.0292969 0.5
vt 0.0332031 0.5

# verts
v 5 0 5
v -5 0 5
v 5 0.1 5
v 4.2 0.1 5
v -5 0.1 5
v 5 0.2 5
v 4.2 0.2 5
v 4.5 0.1 -1
v 4.2 0.1 -1
v 4.5 0.2 -1
v 4.2 0.2 -1
v 4.2 0.1 -1.8
v 3.9 0.1 -1.8
v 4.2 0.2 -1.8
v 3.9 0.2 -1.8
v 4.5 0.1 2.1
v 4.2 0.1 2.1
v 4.5 0.2 2.1
v 4.2 0.2 2.1
v 4.2 0.1 -4.2
v 3.9 0.1 -4.2
v 4.2 0.2 -4.2
v 3.9 0.2 -4.2
v 5 0 -5
v -5 0 -5
v 5 0.1 -5
v 4.2 0.1 -5
v -5 0.1 -5
v 5 0.2 -5
v 4.2 0.2 -5
v 5 0 5
v 5 0.1 5
v 5 0.2 5
v 5 0 -5
v 5 0.1 -5
v 5 0.2 -5
v 4.5 0.1 2.1
v 4.5 0.2 2.1
v 4.5 0.1 -1
v 4.5 0.2 -1
v 4.2 0.1 5
v 4.2 0.2 5
v 4.2 0.1 2.1
v 4.2 0.2 2.1
v 4.2 0.1 -1
v 4.2 0.2 -1
v 4.2 0.1 -1.8
v 4.2 0.2 -1.8
v 4.2 0.1 -4.2
v 4.2 0.2 -4.2
v 4.2 0.1 -5
v 4.2 0.2 -5
v 3.9 0.1 -1.8
v 3.9 0.2 -1.8
v 3.9 0.1 -4.2
v 3.9 0.2 -4.2
v -5 0 5
v -5 0.1 5
v -5 0 -5
v -5 0.1 -5
v 5 0 5
v 5 0 -5
v -5 0 5
v -5 0 -5
v 4.5 0.1 2.1
v 4.5 0.1 -1
v 4.2 0.1 5
v 4.2 0.1 2.1
v 4.2 0.1 -1
v 4.2 0.1 -1.8
v 4.2 0.1 -4.2
v 4.2 0.1 -5
v 3.9 0.1 -1.8
v 3.9 0.1 -4.2
v -5 0.1 5
v -5 0.1 -5
v 5 0.2 5
v 5 0.2 -5
v 4.5 0.2 2.1
v 4.5 0.2 -1
v 4.2 0.2 5
v 4.2 0.2 2.1
v 4.2 0.2 -1
v 4.2 0.2 -1.8
v 4.2 0.2 -4.2
v 4.2 0.2 -5
v 3.9 0.2 -1.8
v 3.9 0.2 -4.2

# faces
f 3/2/1 2/2/1 1/2/1
f 4/2/1 2/2/1 3/2/1
f 5/2/1 2/2/1 4/2/1
f 6/1/1 4/1/1 3/1/1
f 7/1/1 4/1/1 6/1/1
f 10/1/1 9/1/1 8/1/1
f 11/1/1 9/1/1 10/1/1
f 14/1/1 13/1/1 12/1/1
f 15/1/1 13/1/1 14/1/1
f 16/1/2 17/1/2 18/1/2
f 18/1/2 17/1/2 19/1/2
f 20/1/2 21/1/2 22/1/2
f 22/1/2 21/1/2 23/1/2
f 24/2/2 25/2/2 26/2/2
f 26/2/2 25/2/2 27/2/2
f 27/2/2 25/2/2 28/2/2
f 26/1/2 27/1/2 29/1/2
f 29/1/2 27/1/2 30/1/2
f 34/2/3 32/2/3 31/2/3
f 35/1/3 33/1/3 32/1/3
f 35/2/3 32/2/3 34/2/3
f 36/1/3 33/1/3 35/1/3
f 37/1/4 38/1/4 39/1/4
f 39/1/4 38/1/4 40/1/4
f 41/1/4 42/1/4 43/1/4
f 43/1/4 42/1/4 44/1/4
f 45/1/4 46/1/4 47/1/4
f 47/1/4 46/1/4 48/1/4
f 49/1/4 50/1/4 51/1/4
f 51/1/4 50/1/4 52/1/4
f 53/1/4 54/1/4 55/1/4
f 55/1/4 54/1/4 56/1/4
f 57/2/4 58/2/4 59/2/4
f 59/2/4 58/2/4 60/2/4
f 63/2/5 62/2/5 61/2/5
f 64/2/5 62/2/5 63/2/5
f 65/2/6 66/2/6 68/2/6
f 68/2/6 66/2/6 69/2/6
f 67/2/6 68/2/6 73/2/6
f 68/2/6 69/2/6 73/2/6
f 69/2/6 70/2/6 73/2/6
f 71/2/6 72/2/6 74/2/6
f 67/2/6 73/2/6 75/2/6
f 73/2/6 74/2/6 75/2/6
f 74/2/6 72/2/6 76/2/6
f 75/2/6 74/2/6 76/2/6
f 77/1/6 78/1/6 79/1/6
f 79/1/6 78/1/6 80/1/6
f 77/1/6 79/1/6 81/1/6
f 81/1/6 79/1/6 82/1/6
f 80/1/6 78/1/6 83/1/6
f 83/1/6 78/1/6 84/1/6
f 84/1/6 78/1/6 85/1/6
f 85/1/6 78/1/6 86/1/6
f 84/1/6 85/1/6 87/1/6
f 87/1/6 85/1/6 88/1/6
