# MagicaVoxel @ Ephtracy

# group
o sand_grass_edge_c

# material
mtllib terrain-12-sand_grass_edge_c.mtl
usemtl palette

# normals
vn 0 0 1
vn 0 0 -1
vn 1 0 0
vn -1 0 0
vn 0 -1 0
vn 0 1 0

# texcoords
vt 0.0292969 0.5
vt 0.0332031 0.5

# verts
v 5 0 5
v -5 0 5
v 5 0.1 5
v -5 0.1 5
v 5 0.1 -4.2
v 4.5 0.1 -4.2
v 5 0.2 -4.2
v 4.5 0.2 -4.2
v 4.5 0.1 -4.6
v 4.2 0.1 -4.6
v 4.5 0.2 -4.6
v 4.2 0.2 -4.6
v 5 0 -5
v -5 0 -5
v 5 0.1 -5
v 4.2 0.1 -5
v -5 0.1 -5
v 5 0.2 -5
v 4.2 0.2 -5
v 5 0 5
v 5 0.1 5
v 5 0.1 -4.2
v 5 0.2 -4.2
v 5 0 -5
v 5 0.1 -5
v 5 0.2 -5
v 4.5 0.1 -4.2
v 4.5 0.2 -4.2
v 4.5 0.1 -4.6
v 4.5 0.2 -4.6
v 4.2 0.1 -4.6
v 4.2 0.2 -4.6
v 4.2 0.1 -5
v 4.2 0.2 -5
v -5 0 5
v -5 0.1 5
v -5 0 -5
v -5 0.1 -5
v 5 0 5
v 5 0 -5
v -5 0 5
v -5 0 -5
v 5 0.1 5
v 5 0.1 -4.2
v 4.5 0.1 -4.2
v 4.5 0.1 -4.6
v 4.2 0.1 -4.6
v 4.2 0.1 -5
v -5 0.1 5
v -5 0.1 -5
v 5 0.2 -4.2
v 5 0.2 -5
v 4.5 0.2 -4.2
v 4.5 0.2 -4.6
v 4.2 0.2 -4.6
v 4.2 0.2 -5

# faces
f 3/2/1 2/2/1 1/2/1
f 4/2/1 2/2/1 3/2/1
f 7/1/1 6/1/1 5/1/1
f 8/1/1 6/1/1 7/1/1
f 11/1/1 10/1/1 9/1/1
f 12/1/1 10/1/1 11/1/1
f 13/2/2 14/2/2 15/2/2
f 15/2/2 14/2/2 16/2/2
f 16/2/2 14/2/2 17/2/2
f 15/1/2 16/1/2 18/1/2
f 18/1/2 16/1/2 19/1/2
f 22/2/3 21/2/3 20/2/3
f 24/2/3 22/2/3 20/2/3
f 25/1/3 23/1/3 22/1/3
f 25/2/3 22/2/3 24/2/3
f 26/1/3 23/1/3 25/1/3
f 27/1/4 28/1/4 29/1/4
f 29/1/4 28/1/4 30/1/4
f 31/1/4 32/1/4 33/1/4
f 33/1/4 32/1/4 34/1/4
f 35/2/4 36/2/4 37/2/4
f 37/2/4 36/2/4 38/2/4
f 41/2/5 40/2/5 39/2/5
f 42/2/5 40/2/5 41/2/5
f 43/2/6 44/2/6 45/2/6
f 45/2/6 46/2/6 47/2/6
f 43/2/6 45/2/6 49/2/6
f 47/2/6 48/2/6 49/2/6
f 45/2/6 47/2/6 49/2/6
f 49/2/6 48/2/6 50/2/6
f 51/1/6 52/1/6 53/1/6
f 53/1/6 52/1/6 54/1/6
f 54/1/6 52/1/6 55/1/6
f 55/1/6 52/1/6 56/1/6
