# MagicaVoxel @ Ephtracy

# group
o tree_m_01

# material
mtllib terrain-33-tree_m_01.mtl
usemtl palette

# normals
vn -1 0 0
vn 1 0 0
vn 0 0 1
vn 0 0 -1
vn 0 -1 0
vn 0 1 0

# texcoords
vt 0.166016 0.5
vt 0.318359 0.5

# verts
v -2.9 3.8 1
v -2.9 3.8 -1.9
v -2.9 4.3 1
v -2.9 4.3 -1.9
v -2.2 4.8 1.9
v -2.2 4.8 -1.6
v -2.2 5.4 1.9
v -2.2 5.4 -1.6
v -1.7 2.6 0.2
v -1.7 2.6 -0.2
v -1.7 3.8 0.2
v -1.7 3.8 -0.2
v -1.1 3.8 -1.9
v -1.1 3.8 -3
v -1.1 4.3 -0.8
v -1.1 4.3 -1.9
v -1.1 4.4 -0.8
v -1.1 4.4 -3
v -0.9 3.9 2.4
v -0.9 3.9 0.4
v -0.9 4.5 2.4
v -0.9 4.5 0.4
v -0.6 5.4 1
v -0.6 5.4 -0.3
v -0.6 5.7 1
v -0.6 5.7 -0.3
v -0.5 0 0.0999999
v -0.5 0 -0.1
v -0.5 0.1 0.0999999
v -0.5 0.1 -0.1
v -0.3 0 0.2
v -0.3 0 0.0999999
v -0.3 0 -0.1
v -0.3 0 -0.3
v -0.3 0.1 0.2
v -0.3 0.1 0.0999999
v -0.3 0.1 -0.1
v -0.3 0.1 -0.3
v -0.3 0.3 0.0999999
v -0.3 0.3 -0.1
v -0.2 0 0.3
v -0.2 0 0.2
v -0.2 0 -0.3
v -0.2 0 -0.6
v -0.2 0.1 0.2
v -0.2 0.1 0.0999999
v -0.2 0.1 -0.1
v -0.2 0.1 -0.3
v -0.2 0.1 -0.5
v -0.2 0.1 -0.6
v -0.2 0.2 0.3
v -0.2 0.2 0.2
v -0.2 0.2 -0.3
v -0.2 0.2 -0.5
v -0.2 0.3 0.0999999
v -0.2 0.3 -0.1
v -0.2 0.3 -0.2
v -0.2 0.3 -0.3
v -0.2 2.6 0.2
v -0.2 2.6 -0.2
v -0.2 2.9 1.3
v -0.2 2.9 0.2
v -0.2 3 0.2
v -0.2 3 -0.2
v -0.2 3 -1.8
v -0.2 3.3 0.9
v -0.2 3.3 0.2
v -0.2 3.4 -0.2
v -0.2 3.4 -1.4
v -0.2 3.8 -1.4
v -0.2 3.8 -1.8
v -0.2 3.9 1.3
v -0.2 3.9 0.9
v -0.2 4.8 0.2
v -0.2 4.8 -0.2
v -0.0999999 0.2 0.3
v -0.0999999 0.2 0.2
v -0.0999999 0.4 0.3
v -0.0999999 0.4 0.2
v 0.5 3.5 0.8
v 0.5 3.5 -0.9
v 0.5 3.8 -0.8
v 0.5 3.8 -0.9
v 0.5 3.9 0.8
v 0.5 3.9 0.4
v 0.5 3.9 -0.8
v 1 3.1 0.2
v 1 3.1 -0.2
v 1 3.5 0.2
v 1 3.5 -0.2
v -1.3 3 0.2
v -1.3 3 -0.2
v -1.3 3.8 0.2
v -1.3 3.8 -0.2
v -1 3.8 1
v -1 3.8 -0.8
v -1 4.3 1
v -1 4.3 -0.8
v 0 0 -0.4
v 0 0 -0.6
v 0 0.1 -0.3
v 0 0.1 -0.4
v 0 0.1 -0.5
v 0 0.1 -0.6
v 0 0.2 -0.3
v 0 0.2 -0.5
v 0.1 0 0.3
v 0.1 0 0.2
v 0.1 0 -0.2
v 0.1 0 -0.4
v 0.1 0.1 -0.3
v 0.1 0.1 -0.4
v 0.1 0.3 -0.2
v 0.1 0.3 -0.3
v 0.1 0.4 0.3
v 0.1 0.4 0.2
v 0.2 0 0.2
v 0.2 0 0.0999999
v 0.2 0.2 0.0999999
v 0.2 0.2 -0.2
v 0.2 2.7 0.2
v 0.2 2.7 -0.2
v 0.2 2.9 1.3
v 0.2 2.9 0.2
v 0.2 3 -0.2
v 0.2 3 -1.8
v 0.2 3.1 0.2
v 0.2 3.1 -0.2
v 0.2 3.3 0.9
v 0.2 3.3 0.2
v 0.2 3.4 -0.2
v 0.2 3.4 -1.4
v 0.2 3.8 -1.4
v 0.2 3.8 -1.8
v 0.2 3.9 1.3
v 0.2 3.9 0.9
v 0.2 4.8 0.2
v 0.2 4.8 -0.2
v 0.3 0 0.0999999
v 0.3 0 -0.2
v 0.3 0.2 0.0999999
v 0.3 0.2 -0.2
v 0.9 5.4 1
v 0.9 5.4 -0.3
v 0.9 5.7 1
v 0.9 5.7 -0.3
v 1 3.8 -0.9
v 1 3.8 -3
v 1 3.9 -0.8
v 1 3.9 -0.9
v 1 4.4 -0.8
v 1 4.4 -3
v 1.3 3.9 2.4
v 1.3 3.9 0.8
v 1.3 3.9 0.4
v 1.3 4.5 2.4
v 1.3 4.5 0.4
v 1.4 2.7 0.2
v 1.4 2.7 -0.2
v 1.4 3.5 0.2
v 1.4 3.5 -0.2
v 1.7 4.8 1.9
v 1.7 4.8 -1.6
v 1.7 5.4 1.9
v 1.7 5.4 -1.6
v 2.2 3.5 0.8
v 2.2 3.5 -0.9
v 2.2 3.9 0.8
v 2.2 3.9 -0.9
v -0.9 3.9 2.4
v -0.9 4.5 2.4
v 1.3 3.9 2.4
v 1.3 4.5 2.4
v -2.2 4.8 1.9
v -2.2 5.4 1.9
v 1.7 4.8 1.9
v 1.7 5.4 1.9
v -0.2 2.9 1.3
v -0.2 3.9 1.3
v 0.2 2.9 1.3
v 0.2 3.9 1.3
v -2.9 3.8 1
v -2.9 4.3 1
v -1 3.8 1
v -1 4.3 1
v -0.6 5.4 1
v -0.6 5.7 1
v 0.9 5.4 1
v 0.9 5.7 1
v 0.5 3.5 0.8
v 0.5 3.9 0.8
v 1.3 3.9 0.8
v 2.2 3.5 0.8
v 2.2 3.9 0.8
v -0.2 0 0.3
v -0.2 0.2 0.3
v -0.0999999 0.2 0.3
v -0.0999999 0.4 0.3
v 0.1 0 0.3
v 0.1 0.4 0.3
v -1.7 2.6 0.2
v -1.7 3.8 0.2
v -1.3 3 0.2
v -1.3 3.8 0.2
v -0.3 0 0.2
v -0.3 0.1 0.2
v -0.2 0 0.2
v -0.2 0.1 0.2
v -0.2 0.2 0.2
v -0.2 2.6 0.2
v -0.2 2.9 0.2
v -0.2 3 0.2
v -0.2 3.3 0.2
v -0.2 4.8 0.2
v -0.0999999 0.2 0.2
v -0.0999999 0.4 0.2
v 0.1 0 0.2
v 0.1 0.4 0.2
v 0.2 0 0.2
v 0.2 2.7 0.2
v 0.2 2.9 0.2
v 0.2 3.1 0.2
v 0.2 3.3 0.2
v 0.2 4.8 0.2
v 1 3.1 0.2
v 1 3.5 0.2
v 1.4 2.7 0.2
v 1.4 3.5 0.2
v -0.5 0 0.0999999
v -0.5 0.1 0.0999999
v -0.3 0 0.0999999
v -0.3 0.1 0.0999999
v -0.3 0.3 0.0999999
v -0.2 0.1 0.0999999
v -0.2 0.3 0.0999999
v 0.2 0 0.0999999
v 0.2 0.2 0.0999999
v 0.3 0 0.0999999
v 0.3 0.2 0.0999999
v -1.1 4.3 -0.8
v -1.1 4.4 -0.8
v -1 3.8 -0.8
v -1 4.3 -0.8
v 0.5 3.8 -0.8
v 0.5 3.9 -0.8
v 1 3.9 -0.8
v 1 4.4 -0.8
v -0.2 3.4 -1.4
v -0.2 3.8 -1.4
v 0.2 3.4 -1.4
v 0.2 3.8 -1.4
v -0.2 3.3 0.9
v -0.2 3.9 0.9
v 0.2 3.3 0.9
v 0.2 3.9 0.9
v -0.9 3.9 0.4
v -0.9 4.5 0.4
v 0.5 3.9 0.4
v 1.3 3.9 0.4
v 1.3 4.5 0.4
v -0.5 0 -0.1
v -0.5 0.1 -0.1
v -0.3 0 -0.1
v -0.3 0.1 -0.1
v -0.3 0.3 -0.1
v -0.2 0.1 -0.1
v -0.2 0.3 -0.1
v -1.7 2.6 -0.2
v -1.7 3.8 -0.2
v -1.3 3 -0.2
v -1.3 3.8 -0.2
v -0.2 0.3 -0.2
v -0.2 2.6 -0.2
v -0.2 3 -0.2
v -0.2 3.4 -0.2
v -0.2 4.8 -0.2
v 0.1 0 -0.2
v 0.1 0.3 -0.2
v 0.2 0.2 -0.2
v 0.2 2.7 -0.2
v 0.2 3 -0.2
v 0.2 3.1 -0.2
v 0.2 3.4 -0.2
v 0.2 4.8 -0.2
v 0.3 0 -0.2
v 0.3 0.2 -0.2
v 1 3.1 -0.2
v 1 3.5 -0.2
v 1.4 2.7 -0.2
v 1.4 3.5 -0.2
v -0.6 5.4 -0.3
v -0.6 5.7 -0.3
v -0.3 0 -0.3
v -0.3 0.1 -0.3
v -0.2 0 -0.3
v -0.2 0.1 -0.3
v -0.2 0.2 -0.3
v -0.2 0.3 -0.3
v 0 0.1 -0.3
v 0 0.2 -0.3
v 0.1 0.1 -0.3
v 0.1 0.3 -0.3
v 0.9 5.4 -0.3
v 0.9 5.7 -0.3
v 0 0 -0.4
v 0 0.1 -0.4
v 0.1 0 -0.4
v 0.1 0.1 -0.4
v -0.2 0.1 -0.5
v -0.2 0.2 -0.5
v 0 0.1 -0.5
v 0 0.2 -0.5
v -0.2 0 -0.6
v -0.2 0.1 -0.6
v 0 0 -0.6
v 0 0.1 -0.6
v 0.5 3.5 -0.9
v 0.5 3.8 -0.9
v 1 3.8 -0.9
v 1 3.9 -0.9
v 2.2 3.5 -0.9
v 2.2 3.9 -0.9
v -2.2 4.8 -1.6
v -2.2 5.4 -1.6
v 1.7 4.8 -1.6
v 1.7 5.4 -1.6
v -0.2 3 -1.8
v -0.2 3.8 -1.8
v 0.2 3 -1.8
v 0.2 3.8 -1.8
v -2.9 3.8 -1.9
v -2.9 4.3 -1.9
v -1.1 3.8 -1.9
v -1.1 4.3 -1.9
v -1.1 3.8 -3
v -1.1 4.4 -3
v 1 3.8 -3
v 1 4.4 -3
v -0.2 0 0.3
v 0.1 0 0.3
v -0.3 0 0.2
v -0.2 0 0.2
v 0.1 0 0.2
v 0.2 0 0.2
v -0.5 0 0.0999999
v -0.3 0 0.0999999
v 0.2 0 0.0999999
v 0.3 0 0.0999999
v -0.5 0 -0.1
v -0.3 0 -0.1
v 0.1 0 -0.2
v 0.3 0 -0.2
v -0.3 0 -0.3
v -0.2 0 -0.3
v 0 0 -0.4
v 0.1 0 -0.4
v -0.2 0 -0.6
v 0 0 -0.6
v -1.7 2.6 0.2
v -0.2 2.6 0.2
v -1.7 2.6 -0.2
v -0.2 2.6 -0.2
v 0.2 2.7 0.2
v 1.4 2.7 0.2
v 0.2 2.7 -0.2
v 1.4 2.7 -0.2
v -0.2 2.9 1.3
v 0.2 2.9 1.3
v -0.2 2.9 0.2
v 0.2 2.9 0.2
v -0.2 3 -0.2
v 0.2 3 -0.2
v -0.2 3 -1.8
v 0.2 3 -1.8
v 0.5 3.5 0.8
v 2.2 3.5 0.8
v 1 3.5 0.2
v 1.4 3.5 0.2
v 1 3.5 -0.2
v 1.4 3.5 -0.2
v 0.5 3.5 -0.9
v 2.2 3.5 -0.9
v -2.9 3.8 1
v -1 3.8 1
v -1.7 3.8 0.2
v -1.3 3.8 0.2
v -1.7 3.8 -0.2
v -1.3 3.8 -0.2
v -1 3.8 -0.8
v 0.5 3.8 -0.8
v 0.5 3.8 -0.9
v 1 3.8 -0.9
v -0.2 3.8 -1.4
v 0.2 3.8 -1.4
v -0.2 3.8 -1.8
v 0.2 3.8 -1.8
v -2.9 3.8 -1.9
v -1.1 3.8 -1.9
v -1.1 3.8 -3
v 1 3.8 -3
v -0.9 3.9 2.4
v 1.3 3.9 2.4
v -0.2 3.9 1.3
v 0.2 3.9 1.3
v -0.2 3.9 0.9
v 0.2 3.9 0.9
v 0.5 3.9 0.8
v 1.3 3.9 0.8
v -0.9 3.9 0.4
v 0.5 3.9 0.4
v -2.2 4.8 1.9
v 1.7 4.8 1.9
v -0.2 4.8 0.2
v 0.2 4.8 0.2
v -0.2 4.8 -0.2
v 0.2 4.8 -0.2
v -2.2 4.8 -1.6
v 1.7 4.8 -1.6
v -0.3 0.1 0.2
v -0.2 0.1 0.2
v -0.5 0.1 0.0999999
v -0.3 0.1 0.0999999
v -0.2 0.1 0.0999999
v -0.5 0.1 -0.1
v -0.3 0.1 -0.1
v -0.2 0.1 -0.1
v -0.3 0.1 -0.3
v -0.2 0.1 -0.3
v 0 0.1 -0.3
v 0.1 0.1 -0.3
v 0 0.1 -0.4
v 0.1 0.1 -0.4
v -0.2 0.1 -0.5
v 0 0.1 -0.5
v -0.2 0.1 -0.6
v 0 0.1 -0.6
v -0.2 0.2 0.3
v -0.0999999 0.2 0.3
v -0.2 0.2 0.2
v -0.0999999 0.2 0.2
v 0.2 0.2 0.0999999
v 0.3 0.2 0.0999999
v 0.2 0.2 -0.2
v 0.3 0.2 -0.2
v -0.2 0.2 -0.3
v 0 0.2 -0.3
v -0.2 0.2 -0.5
v 0 0.2 -0.5
v -0.3 0.3 0.0999999
v -0.2 0.3 0.0999999
v -0.3 0.3 -0.1
v -0.2 0.3 -0.1
v -0.2 0.3 -0.2
v 0.1 0.3 -0.2
v -0.2 0.3 -0.3
v 0.1 0.3 -0.3
v -0.0999999 0.4 0.3
v 0.1 0.4 0.3
v -0.0999999 0.4 0.2
v 0.1 0.4 0.2
v -1.3 3 0.2
v -0.2 3 0.2
v -1.3 3 -0.2
v -0.2 3 -0.2
v 0.2 3.1 0.2
v 1 3.1 0.2
v 0.2 3.1 -0.2
v 1 3.1 -0.2
v -0.2 3.3 0.9
v 0.2 3.3 0.9
v -0.2 3.3 0.2
v 0.2 3.3 0.2
v -0.2 3.4 -0.2
v 0.2 3.4 -0.2
v -0.2 3.4 -1.4
v 0.2 3.4 -1.4
v 1.3 3.9 0.8
v 2.2 3.9 0.8
v 0.5 3.9 0.4
v 1.3 3.9 0.4
v 0.5 3.9 -0.8
v 1 3.9 -0.8
v 1 3.9 -0.9
v 2.2 3.9 -0.9
v -2.9 4.3 1
v -1 4.3 1
v -1.1 4.3 -0.8
v -1 4.3 -0.8
v -2.9 4.3 -1.9
v -1.1 4.3 -1.9
v -1.1 4.4 -0.8
v 1 4.4 -0.8
v -1.1 4.4 -3
v 1 4.4 -3
v -0.9 4.5 2.4
v 1.3 4.5 2.4
v -0.9 4.5 0.4
v 1.3 4.5 0.4
v -2.2 5.4 1.9
v 1.7 5.4 1.9
v -0.6 5.4 1
v 0.9 5.4 1
v -0.6 5.4 -0.3
v 0.9 5.4 -0.3
v -2.2 5.4 -1.6
v 1.7 5.4 -1.6
v -0.6 5.7 1
v 0.9 5.7 1
v -0.6 5.7 -0.3
v 0.9 5.7 -0.3

# faces
f 3/2/1 2/2/1 1/2/1
f 4/2/1 2/2/1 3/2/1
f 7/2/1 6/2/1 5/2/1
f 8/2/1 6/2/1 7/2/1
f 11/1/1 10/1/1 9/1/1
f 12/1/1 10/1/1 11/1/1
f 16/2/1 14/2/1 13/2/1
f 17/2/1 16/2/1 15/2/1
f 18/2/1 14/2/1 16/2/1
f 18/2/1 16/2/1 17/2/1
f 21/2/1 20/2/1 19/2/1
f 22/2/1 20/2/1 21/2/1
f 25/2/1 24/2/1 23/2/1
f 26/2/1 24/2/1 25/2/1
f 29/1/1 28/1/1 27/1/1
f 30/1/1 28/1/1 29/1/1
f 35/1/1 32/1/1 31/1/1
f 36/1/1 32/1/1 35/1/1
f 37/1/1 34/1/1 33/1/1
f 38/1/1 34/1/1 37/1/1
f 39/1/1 37/1/1 36/1/1
f 40/1/1 37/1/1 39/1/1
f 45/1/1 42/1/1 41/1/1
f 48/1/1 44/1/1 43/1/1
f 49/1/1 44/1/1 48/1/1
f 50/1/1 44/1/1 49/1/1
f 51/1/1 46/1/1 45/1/1
f 51/1/1 45/1/1 41/1/1
f 52/1/1 46/1/1 51/1/1
f 53/1/1 49/1/1 48/1/1
f 53/1/1 48/1/1 47/1/1
f 54/1/1 49/1/1 53/1/1
f 55/1/1 46/1/1 52/1/1
f 56/1/1 53/1/1 47/1/1
f 57/1/1 53/1/1 56/1/1
f 58/1/1 53/1/1 57/1/1
f 59/1/1 55/1/1 52/1/1
f 59/1/1 56/1/1 55/1/1
f 59/1/1 57/1/1 56/1/1
f 60/1/1 57/1/1 59/1/1
f 63/1/1 62/1/1 61/1/1
f 66/1/1 64/1/1 63/1/1
f 66/1/1 65/1/1 64/1/1
f 66/1/1 63/1/1 61/1/1
f 67/1/1 65/1/1 66/1/1
f 68/1/1 65/1/1 67/1/1
f 69/1/1 65/1/1 68/1/1
f 70/1/1 65/1/1 69/1/1
f 71/1/1 65/1/1 70/1/1
f 72/1/1 66/1/1 61/1/1
f 73/1/1 66/1/1 72/1/1
f 74/1/1 68/1/1 67/1/1
f 75/1/1 68/1/1 74/1/1
f 78/1/1 77/1/1 76/1/1
f 79/1/1 77/1/1 78/1/1
f 82/2/1 81/2/1 80/2/1
f 83/2/1 81/2/1 82/2/1
f 84/2/1 82/2/1 80/2/1
f 85/2/1 82/2/1 84/2/1
f 86/2/1 82/2/1 85/2/1
f 89/1/1 88/1/1 87/1/1
f 90/1/1 88/1/1 89/1/1
f 91/1/2 92/1/2 93/1/2
f 93/1/2 92/1/2 94/1/2
f 95/2/2 96/2/2 97/2/2
f 97/2/2 96/2/2 98/2/2
f 99/1/2 100/1/2 102/1/2
f 102/1/2 100/1/2 103/1/2
f 103/1/2 100/1/2 104/1/2
f 101/1/2 102/1/2 105/1/2
f 102/1/2 103/1/2 105/1/2
f 105/1/2 103/1/2 106/1/2
f 109/1/2 110/1/2 111/1/2
f 111/1/2 110/1/2 112/1/2
f 109/1/2 111/1/2 113/1/2
f 113/1/2 111/1/2 114/1/2
f 107/1/2 108/1/2 115/1/2
f 115/1/2 108/1/2 116/1/2
f 117/1/2 118/1/2 119/1/2
f 117/1/2 119/1/2 121/1/2
f 119/1/2 120/1/2 121/1/2
f 121/1/2 120/1/2 122/1/2
f 123/1/2 124/1/2 127/1/2
f 125/1/2 126/1/2 128/1/2
f 123/1/2 127/1/2 129/1/2
f 127/1/2 128/1/2 129/1/2
f 129/1/2 128/1/2 130/1/2
f 128/1/2 126/1/2 131/1/2
f 130/1/2 128/1/2 131/1/2
f 131/1/2 126/1/2 132/1/2
f 132/1/2 126/1/2 133/1/2
f 133/1/2 126/1/2 134/1/2
f 123/1/2 129/1/2 135/1/2
f 135/1/2 129/1/2 136/1/2
f 130/1/2 131/1/2 137/1/2
f 137/1/2 131/1/2 138/1/2
f 139/1/2 140/1/2 141/1/2
f 141/1/2 140/1/2 142/1/2
f 143/2/2 144/2/2 145/2/2
f 145/2/2 144/2/2 146/2/2
f 147/2/2 148/2/2 150/2/2
f 149/2/2 150/2/2 151/2/2
f 150/2/2 148/2/2 152/2/2
f 151/2/2 150/2/2 152/2/2
f 153/2/2 154/2/2 156/2/2
f 154/2/2 155/2/2 156/2/2
f 156/2/2 155/2/2 157/2/2
f 158/1/2 159/1/2 160/1/2
f 160/1/2 159/1/2 161/1/2
f 162/2/2 163/2/2 164/2/2
f 164/2/2 163/2/2 165/2/2
f 166/2/2 167/2/2 168/2/2
f 168/2/2 167/2/2 169/2/2
f 172/2/3 171/2/3 170/2/3
f 173/2/3 171/2/3 172/2/3
f 176/2/3 175/2/3 174/2/3
f 177/2/3 175/2/3 176/2/3
f 180/1/3 179/1/3 178/1/3
f 181/1/3 179/1/3 180/1/3
f 184/2/3 183/2/3 182/2/3
f 185/2/3 183/2/3 184/2/3
f 188/2/3 187/2/3 186/2/3
f 189/2/3 187/2/3 188/2/3
f 192/2/3 191/2/3 190/2/3
f 193/2/3 192/2/3 190/2/3
f 194/2/3 192/2/3 193/2/3
f 197/1/3 196/1/3 195/1/3
f 199/1/3 197/1/3 195/1/3
f 199/1/3 198/1/3 197/1/3
f 200/1/3 198/1/3 199/1/3
f 203/1/3 202/1/3 201/1/3
f 204/1/3 202/1/3 203/1/3
f 207/1/3 206/1/3 205/1/3
f 208/1/3 206/1/3 207/1/3
f 210/1/3 203/1/3 201/1/3
f 211/1/3 203/1/3 210/1/3
f 212/1/3 203/1/3 211/1/3
f 215/1/3 211/1/3 210/1/3
f 215/1/3 210/1/3 209/1/3
f 216/1/3 211/1/3 215/1/3
f 218/1/3 211/1/3 216/1/3
f 219/1/3 218/1/3 217/1/3
f 220/1/3 211/1/3 218/1/3
f 220/1/3 218/1/3 219/1/3
f 221/1/3 211/1/3 220/1/3
f 223/1/3 214/1/3 213/1/3
f 224/1/3 214/1/3 223/1/3
f 225/1/3 222/1/3 221/1/3
f 225/1/3 221/1/3 220/1/3
f 227/1/3 225/1/3 220/1/3
f 227/1/3 226/1/3 225/1/3
f 228/1/3 226/1/3 227/1/3
f 231/1/3 230/1/3 229/1/3
f 232/1/3 230/1/3 231/1/3
f 234/1/3 233/1/3 232/1/3
f 235/1/3 233/1/3 234/1/3
f 238/1/3 237/1/3 236/1/3
f 239/1/3 237/1/3 238/1/3
f 243/2/3 241/2/3 240/2/3
f 244/2/3 243/2/3 242/2/3
f 245/2/3 243/2/3 244/2/3
f 246/2/3 243/2/3 245/2/3
f 247/2/3 241/2/3 243/2/3
f 247/2/3 243/2/3 246/2/3
f 250/1/3 249/1/3 248/1/3
f 251/1/3 249/1/3 250/1/3
f 252/1/4 253/1/4 254/1/4
f 254/1/4 253/1/4 255/1/4
f 256/2/4 257/2/4 258/2/4
f 258/2/4 257/2/4 259/2/4
f 259/2/4 257/2/4 260/2/4
f 261/1/4 262/1/4 263/1/4
f 263/1/4 262/1/4 264/1/4
f 264/1/4 265/1/4 266/1/4
f 266/1/4 265/1/4 267/1/4
f 268/1/4 269/1/4 270/1/4
f 270/1/4 269/1/4 271/1/4
f 268/1/4 270/1/4 273/1/4
f 273/1/4 270/1/4 274/1/4
f 273/1/4 274/1/4 278/1/4
f 272/1/4 273/1/4 278/1/4
f 277/1/4 278/1/4 279/1/4
f 278/1/4 274/1/4 280/1/4
f 279/1/4 278/1/4 280/1/4
f 280/1/4 274/1/4 281/1/4
f 275/1/4 276/1/4 283/1/4
f 283/1/4 276/1/4 284/1/4
f 277/1/4 279/1/4 285/1/4
f 285/1/4 279/1/4 286/1/4
f 281/1/4 282/1/4 287/1/4
f 280/1/4 281/1/4 287/1/4
f 280/1/4 287/1/4 289/1/4
f 287/1/4 288/1/4 289/1/4
f 289/1/4 288/1/4 290/1/4
f 293/1/4 294/1/4 295/1/4
f 295/1/4 294/1/4 296/1/4
f 297/1/4 298/1/4 300/1/4
f 299/1/4 300/1/4 301/1/4
f 300/1/4 298/1/4 302/1/4
f 301/1/4 300/1/4 302/1/4
f 291/2/4 292/2/4 303/2/4
f 303/2/4 292/2/4 304/2/4
f 305/1/4 306/1/4 307/1/4
f 307/1/4 306/1/4 308/1/4
f 309/1/4 310/1/4 311/1/4
f 311/1/4 310/1/4 312/1/4
f 313/1/4 314/1/4 315/1/4
f 315/1/4 314/1/4 316/1/4
f 317/2/4 318/2/4 319/2/4
f 317/2/4 319/2/4 321/2/4
f 319/2/4 320/2/4 321/2/4
f 321/2/4 320/2/4 322/2/4
f 323/2/4 324/2/4 325/2/4
f 325/2/4 324/2/4 326/2/4
f 327/1/4 328/1/4 329/1/4
f 329/1/4 328/1/4 330/1/4
f 331/2/4 332/2/4 333/2/4
f 333/2/4 332/2/4 334/2/4
f 335/2/4 336/2/4 337/2/4
f 337/2/4 336/2/4 338/2/4
f 342/1/5 340/1/5 339/1/5
f 343/1/5 340/1/5 342/1/5
f 346/1/5 342/1/5 341/1/5
f 346/1/5 344/1/5 343/1/5
f 346/1/5 343/1/5 342/1/5
f 347/1/5 344/1/5 346/1/5
f 349/1/5 346/1/5 345/1/5
f 349/1/5 348/1/5 347/1/5
f 349/1/5 347/1/5 346/1/5
f 350/1/5 348/1/5 349/1/5
f 351/1/5 348/1/5 350/1/5
f 352/1/5 348/1/5 351/1/5
f 353/1/5 351/1/5 350/1/5
f 354/1/5 351/1/5 353/1/5
f 355/1/5 351/1/5 354/1/5
f 356/1/5 351/1/5 355/1/5
f 357/1/5 355/1/5 354/1/5
f 358/1/5 355/1/5 357/1/5
f 361/1/5 360/1/5 359/1/5
f 362/1/5 360/1/5 361/1/5
f 365/1/5 364/1/5 363/1/5
f 366/1/5 364/1/5 365/1/5
f 369/1/5 368/1/5 367/1/5
f 370/1/5 368/1/5 369/1/5
f 373/1/5 372/1/5 371/1/5
f 374/1/5 372/1/5 373/1/5
f 377/2/5 376/2/5 375/2/5
f 378/2/5 376/2/5 377/2/5
f 379/2/5 377/2/5 375/2/5
f 380/2/5 376/2/5 378/2/5
f 381/2/5 379/2/5 375/2/5
f 381/2/5 380/2/5 379/2/5
f 382/2/5 376/2/5 380/2/5
f 382/2/5 380/2/5 381/2/5
f 385/2/5 384/2/5 383/2/5
f 386/2/5 384/2/5 385/2/5
f 387/2/5 385/2/5 383/2/5
f 388/2/5 384/2/5 386/2/5
f 389/2/5 384/2/5 388/2/5
f 389/2/5 388/2/5 387/2/5
f 391/2/5 390/2/5 389/2/5
f 393/2/5 391/2/5 389/2/5
f 393/2/5 392/2/5 391/2/5
f 394/2/5 392/2/5 393/2/5
f 395/2/5 393/2/5 389/2/5
f 396/2/5 392/2/5 394/2/5
f 397/2/5 387/2/5 383/2/5
f 397/2/5 396/2/5 395/2/5
f 397/2/5 389/2/5 387/2/5
f 397/2/5 395/2/5 389/2/5
f 398/2/5 396/2/5 397/2/5
f 399/2/5 396/2/5 398/2/5
f 400/2/5 392/2/5 396/2/5
f 400/2/5 396/2/5 399/2/5
f 403/2/5 402/2/5 401/2/5
f 404/2/5 402/2/5 403/2/5
f 405/2/5 403/2/5 401/2/5
f 406/2/5 402/2/5 404/2/5
f 407/2/5 402/2/5 406/2/5
f 407/2/5 406/2/5 405/2/5
f 408/2/5 402/2/5 407/2/5
f 409/2/5 405/2/5 401/2/5
f 409/2/5 407/2/5 405/2/5
f 410/2/5 407/2/5 409/2/5
f 413/2/5 412/2/5 411/2/5
f 414/2/5 412/2/5 413/2/5
f 415/2/5 413/2/5 411/2/5
f 416/2/5 412/2/5 414/2/5
f 417/2/5 415/2/5 411/2/5
f 417/2/5 416/2/5 415/2/5
f 418/2/5 412/2/5 416/2/5
f 418/2/5 416/2/5 417/2/5
f 419/1/6 420/1/6 422/1/6
f 422/1/6 420/1/6 423/1/6
f 421/1/6 422/1/6 424/1/6
f 424/1/6 422/1/6 425/1/6
f 425/1/6 426/1/6 427/1/6
f 427/1/6 426/1/6 428/1/6
f 429/1/6 430/1/6 431/1/6
f 431/1/6 430/1/6 432/1/6
f 433/1/6 434/1/6 435/1/6
f 435/1/6 434/1/6 436/1/6
f 437/1/6 438/1/6 439/1/6
f 439/1/6 438/1/6 440/1/6
f 441/1/6 442/1/6 443/1/6
f 443/1/6 442/1/6 444/1/6
f 445/1/6 446/1/6 447/1/6
f 447/1/6 446/1/6 448/1/6
f 449/1/6 450/1/6 451/1/6
f 451/1/6 450/1/6 452/1/6
f 453/1/6 454/1/6 455/1/6
f 455/1/6 454/1/6 456/1/6
f 457/1/6 458/1/6 459/1/6
f 459/1/6 458/1/6 460/1/6
f 461/1/6 462/1/6 463/1/6
f 463/1/6 462/1/6 464/1/6
f 465/1/6 466/1/6 467/1/6
f 467/1/6 466/1/6 468/1/6
f 469/1/6 470/1/6 471/1/6
f 471/1/6 470/1/6 472/1/6
f 473/1/6 474/1/6 475/1/6
f 475/1/6 474/1/6 476/1/6
f 477/2/6 478/2/6 480/2/6
f 479/2/6 480/2/6 481/2/6
f 481/2/6 480/2/6 482/2/6
f 482/2/6 480/2/6 483/2/6
f 480/2/6 478/2/6 484/2/6
f 483/2/6 480/2/6 484/2/6
f 485/2/6 486/2/6 487/2/6
f 487/2/6 486/2/6 488/2/6
f 485/2/6 487/2/6 489/2/6
f 489/2/6 487/2/6 490/2/6
f 491/2/6 492/2/6 493/2/6
f 493/2/6 492/2/6 494/2/6
f 495/2/6 496/2/6 497/2/6
f 497/2/6 496/2/6 498/2/6
f 499/2/6 500/2/6 501/2/6
f 501/2/6 500/2/6 502/2/6
f 499/2/6 501/2/6 503/2/6
f 502/2/6 500/2/6 504/2/6
f 499/2/6 503/2/6 505/2/6
f 503/2/6 504/2/6 505/2/6
f 504/2/6 500/2/6 506/2/6
f 505/2/6 504/2/6 506/2/6
f 507/2/6 508/2/6 509/2/6
f 509/2/6 508/2/6 510/2/6
