# MagicaVoxel @ Ephtracy

# group
o grass_elevation_I

# material
mtllib terrain-18-grass_elevation_I.mtl
usemtl palette

# normals
vn -1 0 0
vn 1 0 0
vn 0 0 1
vn 0 0 -1
vn 0 -1 0
vn 0 1 0

# texcoords
vt 0.0292969 0.5
vt 0.169922 0.5

# verts
v 2.3 0.9 5
v 2.3 0.9 3.7
v 2.3 0.9 -2.4
v 2.3 0.9 -5
v 2.3 1.1 5
v 2.3 1.1 3.7
v 2.3 1.1 -2.4
v 2.3 1.1 -5
v 2.4 0 5
v 2.4 0 3.8
v 2.4 0 -2.5
v 2.4 0 -5
v 2.4 0.9 5
v 2.4 0.9 3.8
v 2.4 0.9 -2.5
v 2.4 0.9 -5
v 2.5 0.9 3.7
v 2.5 0.9 3.1
v 2.5 1.1 3.7
v 2.5 1.1 3.1
v 2.6 0 3.8
v 2.6 0 3.2
v 2.6 0.9 3.8
v 2.6 0.9 3.2
v 2.7 0 -1.6
v 2.7 0 -2.5
v 2.7 0.9 -1.5
v 2.7 0.9 -1.6
v 2.7 0.9 -2.4
v 2.7 0.9 -2.5
v 2.7 1.1 -1.5
v 2.7 1.1 -2.4
v 2.8 0.9 3.1
v 2.8 0.9 -1.5
v 2.8 1.1 3.1
v 2.8 1.1 -1.5
v 2.9 0 3.2
v 2.9 0 -1.6
v 2.9 0.9 3.2
v 2.9 0.9 -1.6
v 5 0 5
v 5 0 -5
v 5 0.9 5
v 5 0.9 -5
v 5 1.1 5
v 5 1.1 -5
v 2.3 0.9 5
v 2.3 1.1 5
v 2.4 0 5
v 2.4 0.9 5
v 5 0 5
v 5 0.9 5
v 5 1.1 5
v 2.7 0.9 -1.5
v 2.7 1.1 -1.5
v 2.8 0.9 -1.5
v 2.8 1.1 -1.5
v 2.7 0 -1.6
v 2.7 0.9 -1.6
v 2.9 0 -1.6
v 2.9 0.9 -1.6
v 2.3 0.9 -2.4
v 2.3 1.1 -2.4
v 2.7 0.9 -2.4
v 2.7 1.1 -2.4
v 2.4 0 -2.5
v 2.4 0.9 -2.5
v 2.7 0 -2.5
v 2.7 0.9 -2.5
v 2.4 0 3.8
v 2.4 0.9 3.8
v 2.6 0 3.8
v 2.6 0.9 3.8
v 2.3 0.9 3.7
v 2.3 1.1 3.7
v 2.5 0.9 3.7
v 2.5 1.1 3.7
v 2.6 0 3.2
v 2.6 0.9 3.2
v 2.9 0 3.2
v 2.9 0.9 3.2
v 2.5 0.9 3.1
v 2.5 1.1 3.1
v 2.8 0.9 3.1
v 2.8 1.1 3.1
v 2.3 0.9 -5
v 2.3 1.1 -5
v 2.4 0 -5
v 2.4 0.9 -5
v 5 0 -5
v 5 0.9 -5
v 5 1.1 -5
v 2.4 0 5
v 5 0 5
v 2.4 0 3.8
v 2.6 0 3.8
v 2.6 0 3.2
v 2.9 0 3.2
v 2.7 0 -1.6
v 2.9 0 -1.6
v 2.4 0 -2.5
v 2.7 0 -2.5
v 2.4 0 -5
v 5 0 -5
v 2.3 0.9 5
v 2.4 0.9 5
v 2.4 0.9 3.8
v 2.6 0.9 3.8
v 2.3 0.9 3.7
v 2.5 0.9 3.7
v 2.6 0.9 3.2
v 2.9 0.9 3.2
v 2.5 0.9 3.1
v 2.8 0.9 3.1
v 2.7 0.9 -1.5
v 2.8 0.9 -1.5
v 2.7 0.9 -1.6
v 2.9 0.9 -1.6
v 2.3 0.9 -2.4
v 2.7 0.9 -2.4
v 2.4 0.9 -2.5
v 2.7 0.9 -2.5
v 2.3 0.9 -5
v 2.4 0.9 -5
v 2.3 1.1 5
v 5 1.1 5
v 2.3 1.1 3.7
v 2.5 1.1 3.7
v 2.5 1.1 3.1
v 2.8 1.1 3.1
v 2.7 1.1 -1.5
v 2.8 1.1 -1.5
v 2.3 1.1 -2.4
v 2.7 1.1 -2.4
v 2.3 1.1 -5
v 5 1.1 -5

# faces
f 5/1/1 2/1/1 1/1/1
f 6/1/1 2/1/1 5/1/1
f 7/1/1 4/1/1 3/1/1
f 8/1/1 4/1/1 7/1/1
f 13/2/1 10/2/1 9/2/1
f 14/2/1 10/2/1 13/2/1
f 15/2/1 12/2/1 11/2/1
f 16/2/1 12/2/1 15/2/1
f 19/1/1 18/1/1 17/1/1
f 20/1/1 18/1/1 19/1/1
f 23/2/1 22/2/1 21/2/1
f 24/2/1 22/2/1 23/2/1
f 28/2/1 26/2/1 25/2/1
f 29/2/1 26/2/1 28/2/1
f 30/2/1 26/2/1 29/2/1
f 31/1/1 28/1/1 27/1/1
f 31/1/1 29/1/1 28/1/1
f 32/1/1 29/1/1 31/1/1
f 35/1/1 34/1/1 33/1/1
f 36/1/1 34/1/1 35/1/1
f 39/2/1 38/2/1 37/2/1
f 40/2/1 38/2/1 39/2/1
f 41/2/2 42/2/2 43/2/2
f 43/2/2 42/2/2 44/2/2
f 43/1/2 44/1/2 45/1/2
f 45/1/2 44/1/2 46/1/2
f 50/1/3 48/1/3 47/1/3
f 51/2/3 50/2/3 49/2/3
f 52/1/3 48/1/3 50/1/3
f 52/2/3 50/2/3 51/2/3
f 53/1/3 48/1/3 52/1/3
f 56/1/3 55/1/3 54/1/3
f 57/1/3 55/1/3 56/1/3
f 60/2/3 59/2/3 58/2/3
f 61/2/3 59/2/3 60/2/3
f 64/1/3 63/1/3 62/1/3
f 65/1/3 63/1/3 64/1/3
f 68/2/3 67/2/3 66/2/3
f 69/2/3 67/2/3 68/2/3
f 70/2/4 71/2/4 72/2/4
f 72/2/4 71/2/4 73/2/4
f 74/1/4 75/1/4 76/1/4
f 76/1/4 75/1/4 77/1/4
f 78/2/4 79/2/4 80/2/4
f 80/2/4 79/2/4 81/2/4
f 82/1/4 83/1/4 84/1/4
f 84/1/4 83/1/4 85/1/4
f 86/1/4 87/1/4 89/1/4
f 88/2/4 89/2/4 90/2/4
f 89/1/4 87/1/4 91/1/4
f 90/2/4 89/2/4 91/2/4
f 91/1/4 87/1/4 92/1/4
f 95/2/5 94/2/5 93/2/5
f 96/2/5 94/2/5 95/2/5
f 97/2/5 94/2/5 96/2/5
f 98/2/5 94/2/5 97/2/5
f 100/2/5 94/2/5 98/2/5
f 102/2/5 100/2/5 99/2/5
f 103/2/5 102/2/5 101/2/5
f 104/2/5 94/2/5 100/2/5
f 104/2/5 102/2/5 103/2/5
f 104/2/5 100/2/5 102/2/5
f 107/1/5 106/1/5 105/1/5
f 109/1/5 107/1/5 105/1/5
f 109/1/5 108/1/5 107/1/5
f 110/1/5 108/1/5 109/1/5
f 111/1/5 108/1/5 110/1/5
f 113/1/5 111/1/5 110/1/5
f 113/1/5 112/1/5 111/1/5
f 114/1/5 112/1/5 113/1/5
f 116/1/5 112/1/5 114/1/5
f 117/1/5 116/1/5 115/1/5
f 118/1/5 112/1/5 116/1/5
f 118/1/5 116/1/5 117/1/5
f 121/1/5 120/1/5 119/1/5
f 122/1/5 120/1/5 121/1/5
f 123/1/5 121/1/5 119/1/5
f 124/1/5 121/1/5 123/1/5
f 125/1/6 126/1/6 127/1/6
f 127/1/6 126/1/6 128/1/6
f 128/1/6 126/1/6 129/1/6
f 129/1/6 126/1/6 130/1/6
f 130/1/6 126/1/6 132/1/6
f 131/1/6 132/1/6 134/1/6
f 133/1/6 134/1/6 135/1/6
f 132/1/6 126/1/6 136/1/6
f 135/1/6 134/1/6 136/1/6
f 134/1/6 132/1/6 136/1/6
