# MagicaVoxel @ Ephtracy

# group
o stone_elevation_c

# material
mtllib terrain-0-stone_elevation_c.mtl
usemtl palette

# normals
vn 0 0 1
vn 0 0 -1
vn 1 0 0
vn -1 0 0
vn 0 -1 0
vn 0 1 0

# texcoords
vt 0.0292969 0.5
vt 0.169922 0.5
vt 0.310547 0.5

# verts
v 5 0 -3
v 3.8 0 -3
v 5 4.9 -3
v 3.8 4.9 -3
v 5 6 -4.8
v 4.8 6 -4.8
v 5 6.2 -4.8
v 4.8 6.2 -4.8
v 5 4.9 -4.9
v 4.9 4.9 -4.9
v 5 5.9 -4.9
v 4.9 5.9 -4.9
v 4.8 5.9 -4.9
v 5 6 -4.9
v 4.8 6 -4.9
v 5 0 -5
v 4.9 0 -5
v 3.8 0 -5
v 4.9 4.9 -5
v 3.8 4.9 -5
v 5 5.9 -5
v 4.9 5.9 -5
v 4.8 5.9 -5
v 5 6.2 -5
v 4.8 6.2 -5
v 5 0 -3
v 5 4.9 -3
v 5 6 -4.8
v 5 6.2 -4.8
v 5 0 -4.9
v 5 4.9 -4.9
v 5 5.9 -4.9
v 5 6 -4.9
v 5 0 -5
v 5 5.9 -5
v 5 6.2 -5
v 4.9 4.9 -4.9
v 4.9 5.9 -4.9
v 4.9 4.9 -5
v 4.9 5.9 -5
v 4.8 6 -4.8
v 4.8 6.2 -4.8
v 4.8 5.9 -4.9
v 4.8 6 -4.9
v 4.8 5.9 -5
v 4.8 6.2 -5
v 3.8 0 -3
v 3.8 4.9 -3
v 3.8 0 -5
v 3.8 4.9 -5
v 5 0 -3
v 5 0 -4.9
v 5 0 -5
v 4.9 0 -4.9
v 4.9 0 -5
v 3.8 0 -3
v 3.8 0 -5
v 4.9 5.9 -4.9
v 4.9 5.9 -5
v 4.8 5.9 -4.9
v 4.8 5.9 -5
v 5 6 -4.8
v 5 6 -4.9
v 4.8 6 -4.8
v 4.8 6 -4.9
v 5 4.9 -3
v 5 4.9 -4.9
v 4.9 4.9 -4.9
v 4.9 4.9 -5
v 3.8 4.9 -3
v 3.8 4.9 -5
v 5 6.2 -4.8
v 5 6.2 -5
v 4.8 6.2 -4.8
v 4.8 6.2 -5

# faces
f 3/3/1 2/3/1 1/3/1
f 4/3/1 2/3/1 3/3/1
f 7/1/1 6/1/1 5/1/1
f 8/1/1 6/1/1 7/1/1
f 11/2/1 10/2/1 9/2/1
f 12/2/1 10/2/1 11/2/1
f 14/1/1 12/1/1 11/1/1
f 14/1/1 13/1/1 12/1/1
f 15/1/1 13/1/1 14/1/1
f 16/2/2 17/2/2 19/2/2
f 17/3/2 18/3/2 19/3/2
f 19/3/2 18/3/2 20/3/2
f 16/2/2 19/2/2 21/2/2
f 21/2/2 19/2/2 22/2/2
f 21/1/2 22/1/2 24/1/2
f 22/1/2 23/1/2 24/1/2
f 24/1/2 23/1/2 25/1/2
f 30/3/3 27/3/3 26/3/3
f 31/3/3 27/3/3 30/3/3
f 33/1/3 29/1/3 28/1/3
f 34/2/3 32/2/3 31/2/3
f 34/2/3 31/2/3 30/2/3
f 35/1/3 33/1/3 32/1/3
f 35/2/3 32/2/3 34/2/3
f 36/1/3 29/1/3 33/1/3
f 36/1/3 33/1/3 35/1/3
f 37/2/4 38/2/4 39/2/4
f 39/2/4 38/2/4 40/2/4
f 41/1/4 42/1/4 44/1/4
f 43/1/4 44/1/4 45/1/4
f 44/1/4 42/1/4 46/1/4
f 45/1/4 44/1/4 46/1/4
f 47/3/4 48/3/4 49/3/4
f 49/3/4 48/3/4 50/3/4
f 54/3/5 52/3/5 51/3/5
f 54/2/5 53/2/5 52/2/5
f 55/2/5 53/2/5 54/2/5
f 56/3/5 54/3/5 51/3/5
f 56/3/5 55/3/5 54/3/5
f 57/3/5 55/3/5 56/3/5
f 60/1/5 59/1/5 58/1/5
f 61/1/5 59/1/5 60/1/5
f 64/1/5 63/1/5 62/1/5
f 65/1/5 63/1/5 64/1/5
f 66/3/6 67/3/6 68/3/6
f 66/3/6 68/3/6 70/3/6
f 68/3/6 69/3/6 70/3/6
f 70/3/6 69/3/6 71/3/6
f 72/1/6 73/1/6 74/1/6
f 74/1/6 73/1/6 75/1/6
