# MagicaVoxel @ Ephtracy

# group
o grass_elevation_I2

# material
mtllib terrain-17-grass_elevation_I2.mtl
usemtl palette

# normals
vn 0 0 1
vn 0 0 -1
vn 1 0 0
vn -1 0 0
vn 0 -1 0
vn 0 1 0

# texcoords
vt 0.0292969 0.5
vt 0.169922 0.5

# verts
v 5 0.9 -2.3
v 4 0.9 -2.3
v -2.4 0.9 -2.3
v -5 0.9 -2.3
v 5 1.1 -2.3
v 4 1.1 -2.3
v -2.4 1.1 -2.3
v -5 1.1 -2.3
v 5 0 -2.4
v 4.1 0 -2.4
v -2.5 0 -2.4
v -5 0 -2.4
v 5 0.9 -2.4
v 4.1 0.9 -2.4
v -2.5 0.9 -2.4
v -5 0.9 -2.4
v 4 0.9 -3.1
v 3.7 0.9 -3.1
v -1.5 0.9 -3.1
v -2.4 0.9 -3.1
v 4 1.1 -3.1
v 3.7 1.1 -3.1
v -1.5 1.1 -3.1
v -2.4 1.1 -3.1
v 4.1 0 -3.2
v 3.8 0 -3.2
v -1.6 0 -3.2
v -2.5 0 -3.2
v 4.1 0.9 -3.2
v 3.8 0.9 -3.2
v -1.6 0.9 -3.2
v -2.5 0.9 -3.2
v 3.7 0.9 -3.7
v 3.1 0.9 -3.7
v 3.7 1.1 -3.7
v 3.1 1.1 -3.7
v 3.8 0 -3.8
v 3.2 0 -3.8
v 3.8 0.9 -3.8
v 3.2 0.9 -3.8
v 3.1 0.9 -3.9
v -1.5 0.9 -3.9
v 3.1 1.1 -3.9
v -1.5 1.1 -3.9
v 3.2 0 -4
v -1.6 0 -4
v 3.2 0.9 -4
v -1.6 0.9 -4
v 5 0 -5
v -5 0 -5
v 5 0.9 -5
v -5 0.9 -5
v 5 1.1 -5
v -5 1.1 -5
v 5 0.9 -2.3
v 5 1.1 -2.3
v 5 0 -2.4
v 5 0.9 -2.4
v 5 0 -5
v 5 0.9 -5
v 5 1.1 -5
v -1.5 0.9 -3.1
v -1.5 1.1 -3.1
v -1.5 0.9 -3.9
v -1.5 1.1 -3.9
v -1.6 0 -3.2
v -1.6 0.9 -3.2
v -1.6 0 -4
v -1.6 0.9 -4
v -2.4 0.9 -2.3
v -2.4 1.1 -2.3
v -2.4 0.9 -3.1
v -2.4 1.1 -3.1
v -2.5 0 -2.4
v -2.5 0.9 -2.4
v -2.5 0 -3.2
v -2.5 0.9 -3.2
v 4.1 0 -2.4
v 4.1 0.9 -2.4
v 4.1 0 -3.2
v 4.1 0.9 -3.2
v 4 0.9 -2.3
v 4 1.1 -2.3
v 4 0.9 -3.1
v 4 1.1 -3.1
v 3.8 0 -3.2
v 3.8 0.9 -3.2
v 3.8 0 -3.8
v 3.8 0.9 -3.8
v 3.7 0.9 -3.1
v 3.7 1.1 -3.1
v 3.7 0.9 -3.7
v 3.7 1.1 -3.7
v 3.2 0 -3.8
v 3.2 0.9 -3.8
v 3.2 0 -4
v 3.2 0.9 -4
v 3.1 0.9 -3.7
v 3.1 1.1 -3.7
v 3.1 0.9 -3.9
v 3.1 1.1 -3.9
v -5 0.9 -2.3
v -5 1.1 -2.3
v -5 0 -2.4
v -5 0.9 -2.4
v -5 0 -5
v -5 0.9 -5
v -5 1.1 -5
v 5 0 -2.4
v 5 0 -5
v 4.1 0 -2.4
v 4.1 0 -3.2
v 3.8 0 -3.2
v 3.8 0 -3.8
v 3.2 0 -3.8
v 3.2 0 -4
v -1.6 0 -3.2
v -1.6 0 -4
v -2.5 0 -2.4
v -2.5 0 -3.2
v -5 0 -2.4
v -5 0 -5
v 5 0.9 -2.3
v 5 0.9 -2.4
v 4.1 0.9 -2.4
v 4.1 0.9 -3.2
v 4 0.9 -2.3
v 4 0.9 -3.1
v 3.8 0.9 -3.2
v 3.8 0.9 -3.8
v 3.7 0.9 -3.1
v 3.7 0.9 -3.7
v 3.2 0.9 -3.8
v 3.2 0.9 -4
v 3.1 0.9 -3.7
v 3.1 0.9 -3.9
v -1.5 0.9 -3.1
v -1.5 0.9 -3.9
v -1.6 0.9 -3.2
v -1.6 0.9 -4
v -2.4 0.9 -2.3
v -2.4 0.9 -3.1
v -2.5 0.9 -2.4
v -2.5 0.9 -3.2
v -5 0.9 -2.3
v -5 0.9 -2.4
v 5 1.1 -2.3
v 5 1.1 -5
v 4 1.1 -2.3
v 4 1.1 -3.1
v 3.7 1.1 -3.1
v 3.7 1.1 -3.7
v 3.1 1.1 -3.7
v 3.1 1.1 -3.9
v -1.5 1.1 -3.1
v -1.5 1.1 -3.9
v -2.4 1.1 -2.3
v -2.4 1.1 -3.1
v -5 1.1 -2.3
v -5 1.1 -5

# faces
f 5/1/1 2/1/1 1/1/1
f 6/1/1 2/1/1 5/1/1
f 7/1/1 4/1/1 3/1/1
f 8/1/1 4/1/1 7/1/1
f 13/2/1 10/2/1 9/2/1
f 14/2/1 10/2/1 13/2/1
f 15/2/1 12/2/1 11/2/1
f 16/2/1 12/2/1 15/2/1
f 21/1/1 18/1/1 17/1/1
f 22/1/1 18/1/1 21/1/1
f 23/1/1 20/1/1 19/1/1
f 24/1/1 20/1/1 23/1/1
f 29/2/1 26/2/1 25/2/1
f 30/2/1 26/2/1 29/2/1
f 31/2/1 28/2/1 27/2/1
f 32/2/1 28/2/1 31/2/1
f 35/1/1 34/1/1 33/1/1
f 36/1/1 34/1/1 35/1/1
f 39/2/1 38/2/1 37/2/1
f 40/2/1 38/2/1 39/2/1
f 43/1/1 42/1/1 41/1/1
f 44/1/1 42/1/1 43/1/1
f 47/2/1 46/2/1 45/2/1
f 48/2/1 46/2/1 47/2/1
f 49/2/2 50/2/2 51/2/2
f 51/2/2 50/2/2 52/2/2
f 51/1/2 52/1/2 53/1/2
f 53/1/2 52/1/2 54/1/2
f 58/1/3 56/1/3 55/1/3
f 59/2/3 58/2/3 57/2/3
f 60/1/3 56/1/3 58/1/3
f 60/2/3 58/2/3 59/2/3
f 61/1/3 56/1/3 60/1/3
f 64/1/3 63/1/3 62/1/3
f 65/1/3 63/1/3 64/1/3
f 68/2/3 67/2/3 66/2/3
f 69/2/3 67/2/3 68/2/3
f 72/1/3 71/1/3 70/1/3
f 73/1/3 71/1/3 72/1/3
f 76/2/3 75/2/3 74/2/3
f 77/2/3 75/2/3 76/2/3
f 78/2/4 79/2/4 80/2/4
f 80/2/4 79/2/4 81/2/4
f 82/1/4 83/1/4 84/1/4
f 84/1/4 83/1/4 85/1/4
f 86/2/4 87/2/4 88/2/4
f 88/2/4 87/2/4 89/2/4
f 90/1/4 91/1/4 92/1/4
f 92/1/4 91/1/4 93/1/4
f 94/2/4 95/2/4 96/2/4
f 96/2/4 95/2/4 97/2/4
f 98/1/4 99/1/4 100/1/4
f 100/1/4 99/1/4 101/1/4
f 102/1/4 103/1/4 105/1/4
f 104/2/4 105/2/4 106/2/4
f 105/1/4 103/1/4 107/1/4
f 106/2/4 105/2/4 107/2/4
f 107/1/4 103/1/4 108/1/4
f 111/2/5 110/2/5 109/2/5
f 112/2/5 110/2/5 111/2/5
f 113/2/5 110/2/5 112/2/5
f 114/2/5 110/2/5 113/2/5
f 115/2/5 110/2/5 114/2/5
f 116/2/5 110/2/5 115/2/5
f 118/2/5 110/2/5 116/2/5
f 120/2/5 118/2/5 117/2/5
f 121/2/5 120/2/5 119/2/5
f 122/2/5 110/2/5 118/2/5
f 122/2/5 120/2/5 121/2/5
f 122/2/5 118/2/5 120/2/5
f 125/1/5 124/1/5 123/1/5
f 127/1/5 125/1/5 123/1/5
f 127/1/5 126/1/5 125/1/5
f 128/1/5 126/1/5 127/1/5
f 129/1/5 126/1/5 128/1/5
f 131/1/5 129/1/5 128/1/5
f 131/1/5 130/1/5 129/1/5
f 132/1/5 130/1/5 131/1/5
f 133/1/5 130/1/5 132/1/5
f 135/1/5 133/1/5 132/1/5
f 135/1/5 134/1/5 133/1/5
f 136/1/5 134/1/5 135/1/5
f 138/1/5 134/1/5 136/1/5
f 139/1/5 138/1/5 137/1/5
f 140/1/5 134/1/5 138/1/5
f 140/1/5 138/1/5 139/1/5
f 142/1/5 139/1/5 137/1/5
f 143/1/5 142/1/5 141/1/5
f 144/1/5 139/1/5 142/1/5
f 144/1/5 142/1/5 143/1/5
f 145/1/5 143/1/5 141/1/5
f 146/1/5 143/1/5 145/1/5
f 147/1/6 148/1/6 149/1/6
f 149/1/6 148/1/6 150/1/6
f 150/1/6 148/1/6 151/1/6
f 151/1/6 148/1/6 152/1/6
f 152/1/6 148/1/6 153/1/6
f 153/1/6 148/1/6 154/1/6
f 154/1/6 148/1/6 156/1/6
f 155/1/6 156/1/6 158/1/6
f 157/1/6 158/1/6 159/1/6
f 156/1/6 148/1/6 160/1/6
f 159/1/6 158/1/6 160/1/6
f 158/1/6 156/1/6 160/1/6
